<svg width="18" height="21" viewBox="0 0 18 21" fill="none" xmlns="http://www.w3.org/2000/svg">
<rect x="0.548584" y="2.46045" width="12.964" height="9.38488" rx="0.711342" fill="#263238"/>
<rect x="6.84229" y="2.03516" width="0.377163" height="18.5289" rx="0.170198" fill="#263238"/>
<path d="M6.62641 20.189H7.43365C7.60824 20.189 7.74976 20.3297 7.74976 20.5033V20.5418C7.74976 20.5477 7.74741 20.5534 7.74321 20.5575C7.73901 20.5617 7.73332 20.5641 7.72738 20.5641H6.33269C6.32033 20.5641 6.3103 20.5541 6.3103 20.5418V20.5033C6.3103 20.3297 6.45183 20.189 6.62641 20.189V20.189Z" fill="#263238"/>
<rect x="10.6255" y="2.22412" width="1.08536" height="0.0674637" fill="#FF7171"/>
<rect x="9.646" y="2.22412" width="0.331714" height="0.0674637" fill="#FF7171"/>
<rect x="0.59668" y="2.46045" width="12.964" height="9.38488" rx="0.711342" fill="#FF7171"/>
<path opacity="0.7" d="M12.6076 2.79736C12.9466 2.79736 13.2214 3.07221 13.2214 3.41124V10.8937C13.2214 11.2328 12.9466 11.5076 12.6076 11.5076H1.54969C1.21066 11.5076 0.935815 11.2328 0.935815 10.8937V3.41124C0.935815 3.07221 1.21066 2.79736 1.54969 2.79736L12.6076 2.79736Z" fill="white"/>
<path opacity="0.2" d="M4.51003 7.04042C3.71904 6.96678 2.92478 6.93345 2.13037 6.94057C2.13783 5.8679 2.23416 4.70819 2.31895 3.56738L4.65112 3.71648C4.5609 5.04754 4.47136 6.38264 4.51003 7.04042Z" fill="black"/>
<path d="M4.55495 6.99252C3.76399 6.91854 2.96971 6.88522 2.17529 6.89267C2.18275 5.81932 2.23227 4.70887 2.31707 3.56738L4.69673 3.66723C4.60786 4.99829 4.51832 6.33407 4.55495 6.99252Z" fill="white"/>
<path opacity="0.2" d="M7.67797 9.32529L5.29899 9.42851L5.19995 6.05465L7.5328 6L7.67797 9.32529Z" fill="black"/>
<path d="M5.19946 6.05566L7.57891 5.95276L7.72429 9.2776L5.34484 9.38051L5.19946 6.05566Z" fill="white"/>
<path opacity="0.2" d="M12.9819 9.24531L10.6206 8.93565L11.1131 5.59619L13.4195 5.94565L12.9819 9.24531Z" fill="black"/>
<path d="M11.112 5.59671L13.4732 5.90671L13.0353 9.20607L10.6741 8.89608L11.112 5.59671Z" fill="white"/>
<path opacity="0.2" d="M4.86412 11.6846C4.43269 11.8196 3.32155 11.8405 2.48989 11.7993C2.37118 10.7604 2.38339 9.59732 2.41324 8.42615L4.74609 8.3877C4.69453 9.19186 4.73455 10.6228 4.86412 11.6846Z" fill="black"/>
<path d="M4.91169 11.6361C4.47958 11.771 3.36844 11.7912 2.53746 11.7501C2.41962 10.6456 2.37837 9.53429 2.414 8.42413L4.79365 8.33643C4.74142 9.14329 4.78144 10.5742 4.91169 11.6361Z" fill="white"/>
<path opacity="0.2" d="M10.715 6.70308L8.334 6.75502C8.25395 5.64727 8.27702 4.48892 8.30754 3.38184H10.6418C10.6153 4.55908 10.6329 5.68235 10.715 6.70308Z" fill="black"/>
<path d="M10.7618 6.653L8.38083 6.70494C8.30123 5.59719 8.27727 4.48808 8.30892 3.37763L10.6899 3.32568C10.6642 4.51035 10.6832 5.63294 10.7618 6.653Z" fill="white"/>
<path d="M11.5799 19.8113L11.0518 19.6709L11.2398 18.4214L11.768 18.5619L11.5799 19.8113Z" fill="#FF8B7B"/>
<path d="M16.4656 20.2863H15.9184L15.4924 19.0308H16.0397L16.4656 20.2863Z" fill="#FF8B7B"/>
<path d="M15.8453 20.2236H16.5124C16.5348 20.2238 16.554 20.2392 16.5588 20.2608L16.6671 20.743C16.6721 20.7668 16.6659 20.7915 16.6503 20.8102C16.6346 20.8288 16.6112 20.8394 16.5867 20.8389C16.3721 20.8355 16.216 20.8227 15.9455 20.8227C15.7792 20.8227 15.2776 20.8403 15.0486 20.8403C14.8197 20.8403 14.789 20.6154 14.883 20.5944C15.3042 20.5032 15.6218 20.3776 15.7567 20.2567C15.7813 20.2356 15.8127 20.2238 15.8453 20.2236V20.2236Z" fill="#263238"/>
<path d="M11.0722 19.6115L11.6488 19.7648C11.6703 19.7708 11.685 19.7906 11.6842 19.8128L11.6624 20.3058C11.6616 20.33 11.6497 20.3525 11.63 20.3668C11.6102 20.381 11.585 20.3855 11.5615 20.3788C11.3571 20.32 11.0566 20.2275 10.7949 20.1579C10.4889 20.0769 10.2204 20.0228 9.86193 19.9276C9.64522 19.8702 9.64385 19.6365 9.73994 19.6412C10.1774 19.6615 10.5175 19.7419 10.9339 19.6183C10.9785 19.6032 11.0264 19.6009 11.0722 19.6115Z" fill="#263238"/>
<path d="M13.9004 4.12104C13.7198 4.34595 13.5324 4.58774 13.3552 4.8248C13.178 5.06186 13.0077 5.30703 12.8509 5.55287C12.7725 5.67512 12.701 5.79939 12.6322 5.92298L12.4441 6.28972L12.4284 6.32282C12.4284 6.32619 12.4243 6.32889 12.4236 6.32822C12.4227 6.32014 12.4227 6.31198 12.4236 6.3039C12.4236 6.28301 12.4213 6.26219 12.4168 6.24177C12.4144 6.23053 12.4112 6.21947 12.4073 6.20867C12.4073 6.20192 12.4025 6.19517 12.3998 6.18841C12.3964 6.17889 12.3923 6.16964 12.3875 6.16072C12.3753 6.13805 12.3607 6.11677 12.3439 6.09723C12.3202 6.07056 12.2923 6.04777 12.2614 6.0297C12.2301 6.01173 12.1961 5.99896 12.1606 5.99187C12.1341 5.98701 12.1071 5.9852 12.0802 5.98647C12.0496 5.98789 12.0194 5.99428 11.9909 6.00538C11.9709 6.01222 11.9521 6.02201 11.935 6.03442C11.918 6.04726 11.9187 6.04928 11.918 6.05063C11.9173 6.05198 11.9221 6.05063 11.9262 6.05063C11.9504 6.0343 11.9731 6.016 11.9943 5.99593C12.0202 5.97364 12.0461 5.94932 12.072 5.92366C12.1776 5.82303 12.2867 5.71226 12.4005 5.60893L12.7446 5.83046C12.6894 5.98238 12.6229 6.13002 12.5456 6.27216C12.5035 6.35319 12.4538 6.43008 12.3971 6.50179C12.3866 6.51473 12.3754 6.52713 12.3637 6.53894C12.3448 6.55851 12.324 6.57616 12.3016 6.59162C12.2763 6.60909 12.2488 6.62338 12.2199 6.63417C12.1866 6.64642 12.1517 6.6537 12.1163 6.65578C12.0871 6.65716 12.0578 6.65512 12.0291 6.6497C11.9911 6.64235 11.9547 6.62865 11.9214 6.60918C11.8884 6.59011 11.8587 6.56594 11.8335 6.53759C11.8152 6.51683 11.7992 6.49419 11.7858 6.47005C11.781 6.45992 11.7755 6.44911 11.7715 6.43898L11.7626 6.41534C11.7571 6.39778 11.7544 6.38698 11.7517 6.37482C11.7456 6.34505 11.7428 6.31469 11.7435 6.28432C11.7439 6.25718 11.7462 6.2301 11.7503 6.20327C11.7503 6.18369 11.7558 6.16815 11.7585 6.15329C11.7646 6.12358 11.7701 6.09926 11.7755 6.07562C11.798 5.98309 11.8219 5.90542 11.8491 5.82708C11.8764 5.74873 11.9118 5.67039 11.9466 5.59542C12.0147 5.44413 12.0897 5.29825 12.1688 5.15777C12.3256 4.8789 12.4971 4.60837 12.6826 4.3473C12.7739 4.2183 12.868 4.09065 12.9647 3.9657C13.0615 3.84076 13.1596 3.71986 13.268 3.59424L13.9004 4.12104Z" fill="#FF8B7B"/>
<path d="M14.1976 3.72314C14.3148 4.22766 13.1965 5.51968 13.1965 5.51968L12.1934 4.79161C12.4161 4.37302 12.6834 3.97927 12.9907 3.61711C13.45 3.10246 14.0688 3.16865 14.1976 3.72314Z" fill="#FF7171"/>
<path opacity="0.2" d="M14.1976 3.72314C14.3148 4.22766 13.1965 5.51968 13.1965 5.51968L12.1934 4.79161C12.4161 4.37302 12.6834 3.97927 12.9907 3.61711C13.45 3.10246 14.0688 3.16865 14.1976 3.72314Z" fill="black"/>
<path opacity="0.2" d="M11.24 18.4214L11.1426 19.0657L11.6714 19.2062L11.7682 18.5619L11.24 18.4214Z" fill="black"/>
<path opacity="0.2" d="M16.0397 19.0312H15.4924L15.7125 19.6783H16.2598L16.0397 19.0312Z" fill="black"/>
<path d="M16.6448 3.6475C15.9326 5.66827 15.9197 7.85654 15.8399 8.29554C15.4147 8.23948 13.8132 8.02538 12.9403 7.90854C12.744 4.8058 13.604 3.26861 13.604 3.26861C13.604 3.26861 13.7935 3.24362 14.0497 3.23281C14.1301 3.23281 14.2167 3.22741 14.3066 3.22809C14.3564 3.22809 14.4068 3.22809 14.4579 3.23146C14.8717 3.26386 15.2833 3.31978 15.6907 3.39896C15.7677 3.41314 15.8461 3.42935 15.9217 3.44624C15.9974 3.46312 16.058 3.47933 16.1262 3.49622C16.4185 3.56983 16.6448 3.6475 16.6448 3.6475Z" fill="#FF7171"/>
<path opacity="0.2" d="M16.6448 3.6475C15.9326 5.66827 15.9197 7.85654 15.8399 8.29554C15.4147 8.23948 13.8132 8.02538 12.9403 7.90854C12.744 4.8058 13.604 3.26861 13.604 3.26861C13.604 3.26861 13.7935 3.24362 14.0497 3.23281C14.1301 3.23281 14.2167 3.22741 14.3066 3.22809C14.3564 3.22809 14.4068 3.22809 14.4579 3.23146C14.8717 3.26386 15.2833 3.31978 15.6907 3.39896C15.7677 3.41314 15.8461 3.42935 15.9217 3.44624C15.9974 3.46312 16.058 3.47933 16.1262 3.49622C16.4185 3.56983 16.6448 3.6475 16.6448 3.6475Z" fill="black"/>
<path opacity="0.2" d="M15.9781 4.57812C15.863 4.88273 15.9529 5.72629 16.079 6.014C16.124 5.71278 16.1792 5.3967 16.2487 5.07251L15.9781 4.57812Z" fill="black"/>
<path d="M12.406 5.56978L12.8394 5.16455L13.1216 5.79807C12.9613 5.96077 12.7131 6.00176 12.5082 5.89938L12.406 5.56978Z" fill="#FF8B7B"/>
<path d="M13.1576 4.95361L13.3743 5.51419L13.1215 5.79447L12.8394 5.16096L13.1576 4.95361Z" fill="#FF8B7B"/>
<path d="M15.7553 2.00439C15.6238 2.38734 15.4486 3.09718 15.6906 3.39637C15.4459 3.58008 15.1304 3.78743 14.6574 3.74082C14.1845 3.69422 14.3106 3.38422 14.4578 3.23158C14.9144 3.18633 14.9471 2.85944 14.9116 2.54336L15.7553 2.00439Z" fill="#FF8B7B"/>
<path d="M14.3741 3.12879C14.3741 3.02208 14.817 2.93225 14.834 3.03356C14.8511 3.13487 14.6978 3.16864 14.7461 3.30372C14.7945 3.4388 15.2409 3.4523 15.4194 3.26117C15.538 3.13352 15.5755 3.0052 15.7261 3.08962C15.8767 3.17404 16.058 3.29224 15.9585 3.47797C15.859 3.6637 15.2974 4.10271 14.7863 3.98992C14.2752 3.87713 14.1328 3.60494 14.2323 3.48675C14.3189 3.38665 14.3688 3.26052 14.3741 3.12879Z" fill="#FF7171"/>
<path opacity="0.2" d="M15.4111 2.22412L14.9116 2.54291C14.9213 2.61633 14.9243 2.69048 14.9205 2.76443C15.1236 2.75613 15.3091 2.64762 15.4145 2.47537C15.4718 2.36663 15.4527 2.24303 15.4111 2.22412Z" fill="black"/>
<path d="M15.8377 1.32887C15.7893 1.86513 15.7879 2.18121 15.5065 2.44934C15.0833 2.85457 14.4216 2.58442 14.3078 2.04816C14.2056 1.56255 14.3023 0.764915 14.838 0.569052C15.0779 0.478469 15.348 0.5176 15.5518 0.672445C15.7555 0.82729 15.8637 1.07572 15.8377 1.32887Z" fill="#FF8B7B"/>
<path d="M15.8794 0.899863C15.4814 0.870146 15.448 1.55499 15.7772 1.84946C16.1751 1.6948 16.7312 0.959973 15.8794 0.899863Z" fill="#263238"/>
<path d="M15.4856 1.00658C15.2525 0.64187 14.8041 1.22 14.5826 0.821524C14.4497 0.58176 14.2228 0.841785 14.0845 0.697927C13.9461 0.554069 14.1601 0.167746 14.3046 0.133301C14.2235 0.220426 14.2078 0.531781 14.4511 0.377792C14.6944 0.223803 14.8689 0.064411 15.1667 0.323085C15.4645 0.58176 15.7759 0.0617094 16.0492 0.458164C16.289 0.802613 15.7616 1.44018 15.4856 1.00658Z" fill="#263238"/>
<path d="M15.9359 0.950079C15.872 0.949845 15.8085 0.939587 15.7478 0.919686C15.7345 0.915583 15.727 0.901522 15.7311 0.88828C15.7353 0.875039 15.7494 0.86763 15.7628 0.871733C15.9373 0.92644 16.107 0.897398 16.1846 0.800142C16.2453 0.724498 16.2405 0.620488 16.1731 0.507698C16.1659 0.495762 16.1699 0.48034 16.1819 0.473253C16.194 0.466166 16.2095 0.470097 16.2167 0.482033C16.295 0.611708 16.2978 0.739357 16.2249 0.83121C16.1519 0.912512 16.0455 0.956298 15.9359 0.950079Z" fill="#263238"/>
<path d="M16.0655 1.92783C15.9893 2.04003 15.8715 2.11792 15.7377 2.14463C15.5599 2.17772 15.4863 2.01698 15.5483 1.85826C15.6042 1.71576 15.7643 1.52665 15.9367 1.56447C16.1091 1.60229 16.1575 1.7887 16.0655 1.92783Z" fill="#FF8B7B"/>
<path d="M10.9475 18.8735L11.8416 19.1113C11.8416 19.1113 12.6928 15.9869 12.9619 14.316C13.0437 13.8088 13.2264 13.1064 13.4472 12.3574C13.7252 11.4118 14.0639 10.3933 14.3385 9.5957C14.6288 8.75552 14.8462 8.16185 14.8462 8.16185L12.9381 7.90723C12.9381 7.90723 11.4859 12.3196 11.3223 13.9662C11.154 15.6796 10.9475 18.8735 10.9475 18.8735Z" fill="#263238"/>
<path opacity="0.2" d="M13.4473 12.3588C13.7253 11.4133 14.064 10.3948 14.3387 9.59713L14.1697 9.16016C13.6565 9.68966 13.4159 11.4126 13.4473 12.3588Z" fill="black"/>
<path d="M13.9686 8.04639C13.9686 8.04639 13.8745 12.691 14.0027 14.2742C14.1437 16.0086 15.4549 19.553 15.4549 19.553H16.4566C16.4566 19.553 15.7881 16.3111 15.5837 14.6227C15.3499 12.7046 15.8399 8.29425 15.8399 8.29425L13.9686 8.04639Z" fill="#263238"/>
<path d="M15.3348 19.5743H16.5145V19.2251L15.1958 19.2021L15.3348 19.5743Z" fill="#FF7171"/>
<path d="M10.8296 18.8638L11.8954 19.1475L11.9881 18.8064L10.8609 18.4883L10.8296 18.8638Z" fill="#FF7171"/>
<path d="M15.0118 1.45654C15.0118 1.49977 14.9866 1.53489 14.9573 1.53421C14.928 1.53354 14.9062 1.49707 14.9075 1.45317C14.9089 1.40927 14.9334 1.37482 14.962 1.3755C14.9907 1.37617 15.0132 1.41264 15.0118 1.45654Z" fill="#263238"/>
<path d="M14.5137 1.44027C14.5137 1.48417 14.4878 1.51862 14.4591 1.51794C14.4305 1.51727 14.408 1.4808 14.4087 1.43757C14.4094 1.39435 14.4346 1.35855 14.4632 1.3599C14.4918 1.36125 14.5143 1.3984 14.5137 1.44027Z" fill="#263238"/>
<path d="M14.6712 1.46875C14.615 1.60085 14.5405 1.72452 14.4497 1.83616C14.5094 1.88142 14.5863 1.898 14.6596 1.88141L14.6712 1.46875Z" fill="#FF5652"/>
<path d="M14.8422 2.00369C14.9417 1.99532 15.0333 1.94641 15.095 1.86861C15.0997 1.86368 15.0997 1.85599 15.095 1.85105C15.0922 1.84901 15.0886 1.84821 15.0851 1.84885C15.0816 1.84949 15.0786 1.8515 15.0766 1.85443C15.0051 1.94119 14.8957 1.98826 14.7829 1.98073C14.7794 1.98054 14.7759 1.98181 14.7733 1.98424C14.7707 1.98667 14.7693 1.99004 14.7693 1.99356C14.7693 2.00039 14.7747 2.00603 14.7816 2.00639C14.8018 2.00702 14.8221 2.00611 14.8422 2.00369Z" fill="#263238"/>
<path d="M15.1698 1.30108C15.1743 1.30064 15.1785 1.299 15.1821 1.29635C15.1877 1.29241 15.1915 1.28642 15.1926 1.27971C15.1938 1.273 15.1922 1.2661 15.1882 1.26055C15.1413 1.19207 15.0639 1.1503 14.9804 1.14844C14.9735 1.14879 14.9671 1.15183 14.9625 1.1569C14.9579 1.16197 14.9555 1.16864 14.9558 1.17545C14.956 1.1822 14.9589 1.1886 14.964 1.19318C14.969 1.19776 14.9756 1.20013 14.9824 1.19977C15.0485 1.20195 15.1094 1.23567 15.146 1.29027C15.1515 1.29778 15.1605 1.30188 15.1698 1.30108Z" fill="#263238"/>
<path d="M14.3059 1.26612C14.3144 1.26534 14.3219 1.26022 14.3256 1.25261C14.3543 1.19336 14.4102 1.15156 14.4756 1.1405C14.4883 1.13755 14.4968 1.12567 14.4954 1.11278C14.494 1.0999 14.4832 1.09006 14.4701 1.08984C14.3876 1.10254 14.3165 1.15452 14.28 1.22897C14.2767 1.23495 14.276 1.242 14.278 1.2485C14.2801 1.25501 14.2847 1.2604 14.2909 1.26342C14.2954 1.26597 14.3007 1.26692 14.3059 1.26612Z" fill="#263238"/>
<path fill-rule="evenodd" clip-rule="evenodd" d="M15.8077 20.3056C15.7609 20.3179 15.7129 20.3248 15.6646 20.3263C15.6272 20.3288 15.5901 20.3182 15.559 20.2964C15.5396 20.2786 15.5297 20.2521 15.5324 20.2252C15.5326 20.2091 15.5412 20.1944 15.5549 20.1868C15.6132 20.1557 15.7814 20.2616 15.8097 20.2794C15.8105 20.2799 15.8112 20.2804 15.8118 20.2807C15.8159 20.2838 15.818 20.289 15.8173 20.2943C15.8166 20.2997 15.8128 20.3042 15.8077 20.3056ZM15.7667 20.2872C15.7678 20.2869 15.769 20.2867 15.7701 20.2865V20.2893C15.769 20.2886 15.7679 20.2879 15.7667 20.2872ZM15.5759 20.2758C15.6055 20.3018 15.675 20.3056 15.7667 20.2872C15.6955 20.2416 15.5999 20.1943 15.5663 20.2111C15.5609 20.2145 15.5577 20.2208 15.5582 20.2274C15.5555 20.2457 15.5622 20.264 15.5759 20.2758Z" fill="#FF7171"/>
<path fill-rule="evenodd" clip-rule="evenodd" d="M15.8125 20.2994C15.8101 20.3001 15.8075 20.3001 15.805 20.2994L15.7989 20.3C15.7423 20.2696 15.6333 20.1508 15.6449 20.09C15.6488 20.0707 15.6659 20.0568 15.6858 20.0569C15.7057 20.0539 15.7259 20.0599 15.741 20.0731C15.8044 20.1244 15.818 20.2811 15.818 20.2879C15.8187 20.2924 15.8165 20.297 15.8125 20.2994ZM15.7241 20.0927C15.7159 20.0853 15.7052 20.0811 15.6941 20.0812H15.6886C15.6695 20.0833 15.6695 20.0914 15.6695 20.0948C15.6627 20.1272 15.7322 20.2197 15.7888 20.2622C15.7852 20.2005 15.7626 20.1414 15.7241 20.0927Z" fill="#FF7171"/>
<path fill-rule="evenodd" clip-rule="evenodd" d="M11.0117 19.6621C11.0098 19.6666 11.0056 19.6697 11.0008 19.6702L10.9987 19.6709C10.9088 19.6648 10.752 19.6466 10.7077 19.5791C10.6944 19.559 10.6918 19.5338 10.7009 19.5115C10.7052 19.4979 10.7163 19.4874 10.7302 19.4838C10.8038 19.4656 10.9878 19.629 11.0083 19.648C11.0123 19.6515 11.0136 19.6572 11.0117 19.6621ZM10.9621 19.6434C10.8885 19.5792 10.7856 19.5083 10.742 19.5083L10.7365 19.511C10.731 19.5124 10.7267 19.5169 10.7256 19.5225C10.7194 19.5368 10.7209 19.5534 10.7297 19.5664C10.7543 19.6035 10.8401 19.6312 10.9621 19.6434Z" fill="#FF7171"/>
<path fill-rule="evenodd" clip-rule="evenodd" d="M11.004 19.6705H11.0006C10.9973 19.6708 10.994 19.6701 10.9911 19.6685C10.9332 19.6226 10.8391 19.4767 10.865 19.4199C10.8711 19.4064 10.8855 19.3923 10.9209 19.3977C10.9469 19.4016 10.9701 19.416 10.9849 19.4375C11.0322 19.5025 11.0165 19.6266 11.0129 19.6552C11.0125 19.6584 11.0122 19.6605 11.0122 19.6611C11.0113 19.6654 11.0082 19.669 11.004 19.6705ZM10.9167 19.4207H10.903C10.8934 19.4213 10.8901 19.4256 10.889 19.4271C10.8889 19.4273 10.8888 19.4274 10.8887 19.4275C10.873 19.4626 10.9351 19.5741 10.9896 19.6301C10.9995 19.569 10.9905 19.5064 10.9637 19.4505C10.953 19.4344 10.9359 19.4235 10.9167 19.4207Z" fill="#FF7171"/>
<path d="M16.787 4.06592C16.8661 4.4178 16.9329 4.76765 16.9915 5.12155C17.0501 5.47546 17.1026 5.83004 17.1434 6.18935L17.1578 6.32442L17.1659 6.40817C17.1722 6.47376 17.1662 6.53993 17.1482 6.60336C17.1239 6.69154 17.075 6.77113 17.0072 6.83299C16.9504 6.88353 16.8828 6.92071 16.8095 6.94173C16.7243 6.96554 16.6352 6.97265 16.5472 6.96267C16.4329 6.95021 16.3204 6.92483 16.2119 6.88702C16.1144 6.85393 16.0245 6.81948 15.9393 6.77829C15.7683 6.70088 15.6015 6.61453 15.4398 6.51961C15.2796 6.42573 15.1263 6.32915 14.9736 6.21906L15.1679 5.86043C15.4984 5.9739 15.835 6.09547 16.158 6.18327C16.2385 6.20555 16.3182 6.22447 16.3938 6.23797C16.4571 6.25229 16.5218 6.25909 16.5867 6.25823C16.6064 6.25823 16.6221 6.24945 16.5908 6.25486C16.5602 6.26266 16.5323 6.27826 16.5097 6.30011C16.4743 6.33119 16.4483 6.37141 16.4347 6.41628C16.429 6.43677 16.4255 6.45784 16.4245 6.47909C16.4245 6.49057 16.4245 6.47233 16.4211 6.46288L16.415 6.43046L16.3904 6.30214C16.3236 5.95904 16.2555 5.61481 16.186 5.26946C16.1178 4.92434 16.0456 4.57719 15.9815 4.23341L16.787 4.06592Z" fill="#FF8B7B"/>
<path d="M16.8274 3.78055C17.1845 4.15945 17.2165 5.32315 17.2165 5.32315L16.1828 5.80605C16.1828 5.80605 15.8475 5.0665 15.8366 4.39719C15.8257 3.63805 16.4697 3.39896 16.8274 3.78055Z" fill="#FF7171"/>
<path opacity="0.2" d="M16.8274 3.78055C17.1845 4.15945 17.2165 5.32315 17.2165 5.32315L16.1828 5.80605C16.1828 5.80605 15.8475 5.0665 15.8366 4.39719C15.8257 3.63805 16.4697 3.39896 16.8274 3.78055Z" fill="black"/>
<path d="M13.1215 5.19454C13.1156 5.1945 13.1098 5.19311 13.1045 5.19049C13.0883 5.18084 13.0829 5.16015 13.0922 5.14389L13.6374 4.21118C13.6477 4.19717 13.667 4.19314 13.6821 4.20184C13.6972 4.21055 13.7032 4.22917 13.696 4.24495L13.1542 5.17766C13.1475 5.18903 13.1348 5.19559 13.1215 5.19454Z" fill="#263238"/>
<path d="M14.8128 7.7891L12.7527 7.49193C12.6658 7.47883 12.5988 7.40911 12.5898 7.32241L12.4535 4.504C12.4515 4.4659 12.4676 4.42906 12.4971 4.4045C12.5266 4.37995 12.5659 4.37052 12.6035 4.37906L14.6636 4.67555C14.7505 4.68932 14.8175 4.759 14.8271 4.84575L14.96 7.66416C14.9618 7.70167 14.9461 7.73792 14.9173 7.76235C14.8885 7.78678 14.8499 7.79666 14.8128 7.7891Z" fill="white"/>
<path d="M14.7667 7.81734L12.7066 7.51881C12.6195 7.50577 12.5523 7.4361 12.543 7.34929L12.4101 4.53089C12.4078 4.49285 12.4238 4.45597 12.4532 4.43137C12.4826 4.40678 12.5219 4.39736 12.5594 4.40594L14.6195 4.70244C14.7068 4.71554 14.7741 4.78556 14.783 4.87263L14.9193 7.69036C14.9226 7.7295 14.9065 7.76779 14.8762 7.79304C14.8458 7.81828 14.805 7.82735 14.7667 7.81734Z" fill="#263238"/>
<path d="M15.2074 5.87074L14.7228 5.60059L14.6663 6.29083C14.6663 6.29083 15.1297 6.42997 15.2312 6.19425L15.2074 5.87074Z" fill="#FF8B7B"/>
<path d="M14.1831 5.72448L14.2513 6.24048L14.6663 6.29181L14.7228 5.60156L14.1831 5.72448Z" fill="#FF8B7B"/>
</svg>
