<svg width="23" height="21" viewBox="0 0 23 21" fill="none" xmlns="http://www.w3.org/2000/svg">
<rect x="0.932861" y="9.66455" width="21.1606" height="0.760787" fill="#407BFF"/>
<rect opacity="0.3" x="0.932861" y="9.66455" width="5.66337" height="0.760787" fill="white"/>
<path d="M6.68675 10.4253H6.19409L6.45194 19.9604H6.68675H6.92155L7.18003 10.4253H6.68675Z" fill="#407BFF"/>
<path opacity="0.3" d="M6.4519 19.9603H6.68671V10.6299L6.20215 10.7185L6.4519 19.9603Z" fill="white"/>
<path d="M2.01732 10.4253H1.52466L1.78251 19.9604H2.01732H2.25212L2.50997 10.4253H2.01732Z" fill="#407BFF"/>
<path opacity="0.3" d="M1.78236 19.9603H2.01717V10.6299L1.53198 10.7185L1.78236 19.9603Z" fill="white"/>
<path d="M21.0093 10.4253H20.5166L20.7745 19.9604H21.0093H21.2441L21.5025 10.4253H21.0093Z" fill="#407BFF"/>
<path opacity="0.3" d="M20.7744 19.9603H21.0092V10.6299L20.5247 10.7185L20.7744 19.9603Z" fill="white"/>
<path d="M16.3398 10.4253H15.8472L16.105 19.9604H16.3398H16.5746L16.8325 10.4253H16.3398Z" fill="#407BFF"/>
<path opacity="0.3" d="M16.105 19.9603H16.3398V10.6299L15.8552 10.7185L16.105 19.9603Z" fill="white"/>
<path d="M10.9773 5.59151H5.9461C5.86328 5.58823 5.7839 5.62484 5.73253 5.69002C5.68116 5.7552 5.664 5.84107 5.68638 5.92104L6.35655 9.12583C6.40086 9.31207 6.56303 9.4463 6.75391 9.45474H11.7889C11.8715 9.45796 11.9508 9.42142 12.0021 9.35641C12.0534 9.29139 12.0707 9.20572 12.0486 9.12583L11.3778 5.92104C11.3334 5.73348 11.1695 5.59866 10.9773 5.59151Z" fill="#263238"/>
<path d="M6.79759 9.27189C6.66885 9.26318 6.56029 9.17252 6.52853 9.04721L5.85837 5.84241C5.84675 5.79946 5.85523 5.75354 5.88141 5.71759C5.90857 5.68681 5.94821 5.67006 5.98916 5.67203H11.0241C11.1528 5.68074 11.2614 5.77139 11.2932 5.89671L11.9633 9.1015C11.9749 9.14446 11.9665 9.19038 11.9403 9.22633C11.9133 9.25733 11.8735 9.27414 11.8325 9.27189H6.79759Z" fill="white"/>
<path opacity="0.4" d="M10.5962 9.01509L9.96089 5.97631C9.95366 5.93989 9.96299 5.90213 9.98635 5.8733C10.0097 5.84446 10.0447 5.82755 10.0817 5.82715H10.8989C10.9572 5.8276 11.0074 5.86858 11.0197 5.92576L11.655 8.96204C11.6622 8.99846 11.6529 9.03622 11.6295 9.06505C11.6062 9.09389 11.5712 9.1108 11.5342 9.1112H10.717C10.6594 9.11102 10.6094 9.07127 10.5962 9.01509Z" fill="#407BFF"/>
<path d="M6.2774 6.09311L6.25 5.96143H7.25898L7.28639 6.09311H6.2774Z" fill="#407BFF"/>
<path d="M6.74322 6.42026L6.71582 6.28857H8.48403L8.51206 6.42026H6.74322Z" fill="#EBEBEB"/>
<path d="M6.83687 6.74643L6.80884 6.61475H8.7913L8.8187 6.74643H6.83687Z" fill="#EBEBEB"/>
<path d="M6.9295 7.07358L6.9021 6.94189H8.49778L8.52581 7.07358H6.9295Z" fill="#EBEBEB"/>
<path d="M6.58442 7.60337L6.5564 7.47168H7.1948L7.2222 7.60337H6.58442Z" fill="#407BFF"/>
<path d="M7.04962 7.93003L7.02222 7.79834H7.79951L7.82753 7.93003H7.04962Z" fill="#EBEBEB"/>
<path d="M8.01387 7.93003L7.98584 7.79834H8.76375L8.79116 7.93003H8.01387Z" fill="#EBEBEB"/>
<path d="M7.14313 8.25717L7.11572 8.12549H9.74406L9.77146 8.25717H7.14313Z" fill="#EBEBEB"/>
<path d="M7.2359 8.58335L7.2085 8.45166H9.21276L9.24016 8.58335H7.2359Z" fill="#EBEBEB"/>
<path d="M13.3278 9.43506H6.7034C6.52278 9.43506 6.40569 9.53804 6.44368 9.66411H13.7252C13.6878 9.53804 13.5084 9.43506 13.3278 9.43506Z" fill="#263238"/>
<path opacity="0.1" d="M4.52661 4.78115L3.8907 1.74424C3.88368 1.70791 3.89311 1.67033 3.91644 1.64165C3.93977 1.61297 3.9746 1.59614 4.01153 1.5957H9.15609C9.21425 1.59609 9.26441 1.63676 9.27691 1.69369L9.91282 4.7281C9.92005 4.76452 9.91072 4.80228 9.88736 4.83111C9.86401 4.85995 9.82905 4.87686 9.79199 4.87726H4.64744C4.58982 4.87708 4.53986 4.83733 4.52661 4.78115Z" fill="#407BFF"/>
<path d="M6.35525 1.69581H5.27527L5.25098 1.5791H6.33096L6.35525 1.69581Z" fill="#407BFF"/>
<path opacity="0.4" d="M6.1797 1.88184H5.74621L5.72192 1.76514H6.15541L6.1797 1.88184Z" fill="#407BFF"/>
<path opacity="0.4" d="M6.90095 1.88184H6.23327L6.20898 1.76514H6.87666L6.90095 1.88184Z" fill="#407BFF"/>
<path opacity="0.4" d="M7.19176 2.0669H5.78479L5.7605 1.9502H7.16809L7.19176 2.0669Z" fill="#407BFF"/>
<path opacity="0.4" d="M7.01296 2.25294H5.82336L5.79907 2.13623H6.98867L7.01296 2.25294Z" fill="#407BFF"/>
<path opacity="0.4" d="M7.80204 4.22607H7.04468L7.06897 4.34216H7.82633L7.80204 4.22607Z" fill="#407BFF"/>
<path d="M6.85791 3.9712H5.74866L5.72437 3.85449H6.83362L6.85791 3.9712Z" fill="#407BFF"/>
<path opacity="0.4" d="M7.30386 4.41113H6.27246L6.29675 4.52784H7.32815L7.30386 4.41113Z" fill="#407BFF"/>
<path opacity="0.4" d="M6.99125 4.22607H6.23389L6.25818 4.34216H7.01554L6.99125 4.22607Z" fill="#407BFF"/>
<path opacity="0.4" d="M7.71003 4.04004H6.19531L6.2196 4.15675H7.73432L7.71003 4.04004Z" fill="#407BFF"/>
<path d="M6.31732 0.829463H5.09534L5.07104 0.713379H6.29303L6.31732 0.829463Z" fill="#407BFF"/>
<path opacity="0.4" d="M6.9208 1.27002H5.573L5.59729 1.38673H6.94446L6.9208 1.27002Z" fill="#407BFF"/>
<path opacity="0.4" d="M6.65115 1.08496H5.53442L5.55871 1.20104H6.67544L6.65115 1.08496Z" fill="#407BFF"/>
<path opacity="0.4" d="M6.72531 0.898926H5.49585L5.52014 1.01563H6.7496L6.72531 0.898926Z" fill="#407BFF"/>
<path d="M6.30351 2.55518H5.45398L5.42969 2.43848H6.27922L6.30351 2.55518Z" fill="#407BFF"/>
<path opacity="0.4" d="M7.63762 2.99512H5.97778L6.00207 3.11183H7.66129L7.63762 2.99512Z" fill="#407BFF"/>
<path opacity="0.4" d="M6.62681 2.80957H5.93921L5.9635 2.92628H6.6511L6.62681 2.80957Z" fill="#407BFF"/>
<path opacity="0.4" d="M7.3729 2.80957H6.6853L6.70959 2.92628H7.39719L7.3729 2.80957Z" fill="#407BFF"/>
<path opacity="0.4" d="M7.41535 2.62354H5.90063L5.92493 2.74024H7.43902L7.41535 2.62354Z" fill="#407BFF"/>
<path opacity="0.4" d="M7.41228 3.55225H6.09375L6.11804 3.66833H7.43657L7.41228 3.55225Z" fill="#407BFF"/>
<path opacity="0.4" d="M6.43884 3.3667H6.05518L6.07947 3.48341H6.46251L6.43884 3.3667Z" fill="#407BFF"/>
<path opacity="0.4" d="M7.03868 3.3667H6.49121L6.5155 3.48341H7.06297L7.03868 3.3667Z" fill="#407BFF"/>
<path opacity="0.4" d="M7.53107 3.18115H6.01636L6.04065 3.29724H7.55537L7.53107 3.18115Z" fill="#407BFF"/>
<path opacity="0.4" d="M8.724 3.14991H8.18152L8.15723 3.0332H8.70033L8.724 3.14991Z" fill="#407BFF"/>
<path opacity="0.4" d="M9.62697 3.14991H8.79114L8.76685 3.0332H9.60268L9.62697 3.14991Z" fill="#407BFF"/>
<path opacity="0.4" d="M9.98207 3.33595H8.22009L8.1958 3.21924H9.95778L9.98207 3.33595Z" fill="#407BFF"/>
<path opacity="0.4" d="M9.74785 3.52101H8.25867L8.23438 3.4043H9.72356L9.74785 3.52101Z" fill="#407BFF"/>
<path opacity="0.4" d="M10.415 2.41162H8.72778L8.75207 2.52771H10.4393L10.415 2.41162Z" fill="#407BFF"/>
<path opacity="0.4" d="M10.0872 2.22559H8.68896L8.71326 2.34229H10.1109L10.0872 2.22559Z" fill="#407BFF"/>
<path d="M9.83431 2.04004H8.29468L8.31897 2.15612H9.8586L9.83431 2.04004Z" fill="#407BFF"/>
<path opacity="0.4" d="M10.4908 4.26416H8.41309L8.43738 4.38087H10.5151L10.4908 4.26416Z" fill="#407BFF"/>
<path opacity="0.4" d="M9.23526 4.07861H8.37451L8.3988 4.1947H9.25955L9.23526 4.07861Z" fill="#407BFF"/>
<path opacity="0.4" d="M10.1696 4.07861H9.30884L9.33313 4.1947H10.1939L10.1696 4.07861Z" fill="#407BFF"/>
<path opacity="0.4" d="M10.2318 3.89258H8.33594L8.36023 4.00929H10.2561L10.2318 3.89258Z" fill="#407BFF"/>
<path opacity="0.4" d="M10.1795 4.8208H8.52905L8.55334 4.93751H10.2038L10.1795 4.8208Z" fill="#407BFF"/>
<path opacity="0.4" d="M8.97068 4.63525H8.49048L8.51477 4.75196H8.99497L8.97068 4.63525Z" fill="#407BFF"/>
<path opacity="0.4" d="M9.72173 4.63525H9.03662L9.06091 4.75196H9.74602L9.72173 4.63525Z" fill="#407BFF"/>
<path opacity="0.4" d="M10.3482 4.44922H8.45166L8.47595 4.56593H10.3718L10.3482 4.44922Z" fill="#407BFF"/>
<path opacity="0.4" d="M5.29834 4.96484H4.00659L4.03088 5.08155H5.32263L5.29834 4.96484Z" fill="#407BFF"/>
<path opacity="0.4" d="M4.91658 4.7793H3.96802L3.99231 4.89538H4.94025L4.91658 4.7793Z" fill="#407BFF"/>
<path opacity="0.4" d="M5.9311 4.7793H4.98315L5.00744 4.89538H5.95601L5.9311 4.7793Z" fill="#407BFF"/>
<path opacity="0.4" d="M5.82595 4.59326H3.92944L3.95373 4.70997H5.84962L5.82595 4.59326Z" fill="#407BFF"/>
<path d="M20.3302 8.45166H19.5305L19.6239 9.6643H20.2368L20.3302 8.45166Z" fill="#407BFF"/>
<path opacity="0.4" d="M20.3302 8.45166H19.5305L19.6239 9.6643H20.2368L20.3302 8.45166Z" fill="white"/>
<path d="M2.90239 7.60986H4.05213L3.65975 9.66443H2.51001L2.90239 7.60986Z" fill="#263238"/>
<path d="M4.36663 7.05908H2.74292L3.19758 9.66411H4.8213L4.36663 7.05908Z" fill="#407BFF"/>
<path d="M2.64697 7.05908H2.74289L3.19755 9.66411H3.10164L2.64697 7.05908Z" fill="#407BFF"/>
<path opacity="0.3" d="M2.64697 7.05908H2.74289L3.19755 9.66411H3.10164L2.64697 7.05908Z" fill="black"/>
<path d="M3.43123 9.38559L3.07373 7.33789H4.13378L4.49066 9.38559H3.43123Z" fill="white"/>
<path opacity="0.6" d="M4.44013 9.38559L4.08325 7.33789H4.1337L4.49058 9.38559H4.44013Z" fill="#407BFF"/>
<path d="M12.4619 3.7769C12.485 3.827 12.4775 3.88023 12.4445 3.89526C12.4114 3.91029 12.3666 3.88211 12.3435 3.83264C12.3204 3.78316 12.3285 3.7293 12.361 3.71427C12.3934 3.69924 12.4389 3.72429 12.4619 3.7769Z" fill="#263238"/>
<path d="M12.4821 3.87549C12.4821 3.87549 12.502 4.21742 12.4409 4.41532C12.5656 4.45728 12.7003 4.35269 12.7003 4.35269L12.4821 3.87549Z" fill="#FF5652"/>
<path d="M12.4682 3.36284C12.4629 3.36724 12.4563 3.36987 12.4495 3.37036C12.3672 3.37254 12.2909 3.41423 12.2444 3.48246C12.2388 3.49295 12.228 3.49955 12.2161 3.49968C12.2043 3.4998 12.1933 3.49344 12.1875 3.48307C12.1817 3.4727 12.182 3.45998 12.1883 3.44989C12.2456 3.36249 12.3416 3.30853 12.4457 3.30523C12.4597 3.30445 12.4726 3.31278 12.4777 3.32587C12.4828 3.33897 12.479 3.35388 12.4682 3.36284Z" fill="#263238"/>
<path d="M14.2982 3.69922C14.4908 4.36931 14.7059 4.8891 14.9684 5.18595C14.9684 5.18595 14.9733 5.71263 14.08 5.96313C13.0974 6.23868 13.474 5.60491 13.474 5.60491C13.9727 5.32623 13.9253 4.90539 13.55 4.74506L14.2982 3.69922Z" fill="#FF8B7B"/>
<path d="M15.1764 5.05718C15.159 4.81231 15.1359 4.533 14.9857 4.52549C14.8198 4.51797 13.8597 4.94884 13.6546 5.25257C13.4495 5.5563 13.8504 5.85377 13.8504 5.85377L15.1764 5.05718Z" fill="#263238"/>
<path d="M13.2115 8.84933L12.3823 8.82178L12.3973 9.51943C12.3973 9.51943 13.1205 9.44427 13.1523 9.25327L13.2115 8.84933Z" fill="#FF8B7B"/>
<path d="M11.944 9.1642L11.8567 9.52117L12.3972 9.51991L12.3822 8.82227L11.944 9.1642Z" fill="#FF8B7B"/>
<path d="M16.5393 5.9505L16.5218 6.12961C16.5162 6.18722 16.5087 6.24359 16.5013 6.30058C16.4869 6.41393 16.4688 6.52728 16.4495 6.64001C16.4121 6.86608 16.3635 7.09091 16.3074 7.31699C16.2503 7.5474 16.1813 7.77463 16.1004 7.99773C16.0574 8.11233 16.0125 8.22694 15.9589 8.34342C15.9048 8.46561 15.8423 8.58384 15.7718 8.69725C15.755 8.72669 15.7338 8.75988 15.7132 8.78743C15.6927 8.81499 15.6727 8.85006 15.6509 8.87887C15.6291 8.90768 15.606 8.94149 15.5773 8.97093L15.5368 9.01727C15.5223 9.03437 15.5069 9.05067 15.4907 9.06612C15.3657 9.18905 15.2193 9.28777 15.0586 9.35733C14.8122 9.4635 14.5507 9.53007 14.2837 9.5546C14.1621 9.569 14.0418 9.57464 13.924 9.57777C13.8061 9.5809 13.6883 9.57777 13.5724 9.57151C13.4564 9.56524 13.3417 9.55522 13.2276 9.54145C13.1135 9.52767 13.0025 9.50951 12.8816 9.48508L12.9015 8.83065C13.2996 8.76072 13.6931 8.66661 14.0798 8.54883C14.1659 8.52074 14.2503 8.48813 14.333 8.45114C14.4033 8.42132 14.4705 8.38461 14.5337 8.34154C14.5704 8.31931 14.6016 8.28888 14.6247 8.25261L14.6428 8.2238C14.6512 8.2115 14.6589 8.19875 14.6659 8.1856C14.6748 8.17123 14.6829 8.15639 14.6902 8.14114C14.6983 8.12486 14.707 8.10983 14.7151 8.09167C14.7884 7.93104 14.8486 7.76475 14.8953 7.59442C14.9464 7.4103 14.9944 7.21867 15.0331 7.02014C15.0717 6.82162 15.1091 6.62122 15.1434 6.41894L15.1908 6.11458L15.2338 5.81836L16.5393 5.9505Z" fill="#407BFF"/>
<path opacity="0.2" d="M16.5393 5.9505L16.5218 6.12961C16.5162 6.18722 16.5087 6.24359 16.5013 6.30058C16.4869 6.41393 16.4688 6.52728 16.4495 6.64001C16.4121 6.86608 16.3635 7.09091 16.3074 7.31699C16.2503 7.5474 16.1813 7.77463 16.1004 7.99773C16.0574 8.11233 16.0125 8.22694 15.9589 8.34342C15.9048 8.46561 15.8423 8.58384 15.7718 8.69725C15.755 8.72669 15.7338 8.75988 15.7132 8.78743C15.6927 8.81499 15.6727 8.85006 15.6509 8.87887C15.6291 8.90768 15.606 8.94149 15.5773 8.97093L15.5368 9.01727C15.5223 9.03437 15.5069 9.05067 15.4907 9.06612C15.3657 9.18905 15.2193 9.28777 15.0586 9.35733C14.8122 9.4635 14.5507 9.53007 14.2837 9.5546C14.1621 9.569 14.0418 9.57464 13.924 9.57777C13.8061 9.5809 13.6883 9.57777 13.5724 9.57151C13.4564 9.56524 13.3417 9.55522 13.2276 9.54145C13.1135 9.52767 13.0025 9.50951 12.8816 9.48508L12.9015 8.83065C13.2996 8.76072 13.6931 8.66661 14.0798 8.54883C14.1659 8.52074 14.2503 8.48813 14.333 8.45114C14.4033 8.42132 14.4705 8.38461 14.5337 8.34154C14.5704 8.31931 14.6016 8.28888 14.6247 8.25261L14.6428 8.2238C14.6512 8.2115 14.6589 8.19875 14.6659 8.1856C14.6748 8.17123 14.6829 8.15639 14.6902 8.14114C14.6983 8.12486 14.707 8.10983 14.7151 8.09167C14.7884 7.93104 14.8486 7.76475 14.8953 7.59442C14.9464 7.4103 14.9944 7.21867 15.0331 7.02014C15.0717 6.82162 15.1091 6.62122 15.1434 6.41894L15.1908 6.11458L15.2338 5.81836L16.5393 5.9505Z" fill="black"/>
<path d="M12.858 6.78272C13.1671 8.12155 13.3411 9.48826 13.3773 10.8621H17.0276C17.0475 10.4094 16.9714 7.85612 16.6042 6.0118C16.5384 5.67433 16.3399 5.37777 16.0536 5.18919C15.7673 5.00062 15.4174 4.93594 15.0831 5.00979L15.0656 5.01418C14.6099 5.11814 13.9559 5.28597 13.5694 5.43314L13.5538 5.4394C13.019 5.64825 12.7214 6.22299 12.858 6.78272Z" fill="#407BFF"/>
<path opacity="0.2" d="M13.0955 7.95381C13.1241 8.12979 13.1534 8.31642 13.1802 8.51181C13.4789 8.19868 13.5736 7.23926 13.5736 7.23926L13.0955 7.95381Z" fill="black"/>
<path d="M10.063 8.89504L9.23446 8.81738L9.20703 9.5144C9.48613 9.5918 9.78492 9.50711 9.98259 9.29459L10.063 8.89504Z" fill="#FF8B7B"/>
<path d="M8.84054 9.02279L8.57495 9.50188L9.20961 9.5144L9.23704 8.81738L8.84054 9.02279Z" fill="#FF8B7B"/>
<path d="M14.2275 6.4617C14.1701 6.5713 14.119 6.66837 14.0617 6.76857C14.0043 6.86877 13.9494 6.96647 13.8902 7.06354C13.773 7.25893 13.6514 7.45056 13.523 7.64032C13.2652 8.0289 12.9795 8.39812 12.6683 8.74503C12.5016 8.93179 12.3205 9.10497 12.1265 9.26294C12.1022 9.28361 12.0735 9.30365 12.0467 9.32557C12.0199 9.34749 11.9962 9.36502 11.9563 9.38819C11.9164 9.41137 11.8827 9.43454 11.8466 9.45458C11.8104 9.47462 11.773 9.49278 11.7362 9.50906C11.5987 9.56903 11.4548 9.61295 11.3073 9.63995C11.0493 9.68363 10.7864 9.68954 10.5268 9.65748C10.4052 9.64348 10.2844 9.62257 10.1652 9.59486C10.1057 9.58108 10.0471 9.56542 9.98936 9.54789C9.92702 9.53035 9.87652 9.51094 9.80981 9.48526L9.91268 8.83897C10.3042 8.78574 10.7275 8.71748 11.0193 8.58471C11.0841 8.55797 11.145 8.52281 11.2007 8.48012C11.2231 8.46464 11.244 8.44702 11.263 8.42752C11.2674 8.42188 11.2867 8.40497 11.3011 8.3912C11.3154 8.37742 11.3322 8.36427 11.3478 8.34798C11.4813 8.21515 11.6062 8.07396 11.7219 7.92526C11.9729 7.6 12.2074 7.26223 12.4245 6.91323C12.5367 6.736 12.6458 6.55564 12.7549 6.37465L12.9158 6.10286L13.071 5.83545L14.2275 6.4617Z" fill="#407BFF"/>
<path d="M13.2257 19.5334H12.5437L12.2002 17.9458H12.8829L13.2257 19.5334Z" fill="#FF8B7B"/>
<path d="M12.5056 19.3867H13.2725C13.2998 19.3877 13.3234 19.4065 13.3305 19.4331L13.4651 20.043C13.4716 20.0731 13.4641 20.1044 13.4446 20.1281C13.4251 20.1518 13.3959 20.1652 13.3654 20.1645C13.0979 20.1601 12.9676 20.1445 12.6303 20.1445C12.4227 20.1445 12.1565 20.1658 11.8704 20.1658C11.5842 20.1658 11.5462 19.8815 11.6634 19.8558C12.1896 19.7399 12.2245 19.5809 12.3947 19.4287C12.4252 19.4013 12.4648 19.3864 12.5056 19.3867Z" fill="#263238"/>
<g opacity="0.2">
<path d="M12.8835 17.9463H12.2002L12.391 18.8256L13.0605 18.7648L12.8835 17.9463Z" fill="black"/>
</g>
<path d="M14.0792 2.89363C14.3285 3.5274 14.5019 3.88625 14.3373 4.34654C14.0879 5.03856 13.2032 5.1087 12.7731 4.56135C12.3865 4.06849 12.0486 3.1147 12.5368 2.59053C12.7541 2.35425 13.0779 2.24799 13.3922 2.30975C13.7065 2.37152 13.9665 2.59249 14.0792 2.89363Z" fill="#FF8B7B"/>
<path d="M12.8809 3.84298C12.7787 3.98075 12.7001 4.08534 12.7001 4.08534C12.7001 4.08534 12.49 3.56116 12.5704 3.32068C12.4682 3.11715 12.2618 3.41713 12.1839 3.02071C12.106 2.62429 12.4433 2.19843 12.5704 2.11013C12.5836 2.15632 12.5894 2.20428 12.5879 2.25229C12.9316 1.97214 13.3683 1.83358 13.8098 1.86464C13.7729 1.91977 13.7494 1.98284 13.7413 2.04876C13.7413 2.04876 14.4813 2.17401 14.6496 2.59485C14.5901 2.56631 14.5273 2.54527 14.4626 2.53223C14.5982 2.72761 14.652 2.96874 14.6122 3.20357C14.5585 3.54604 14.5306 3.89209 14.5287 4.23877C14.5355 4.41663 14.0499 4.75668 13.7537 4.39346C13.4576 4.03023 12.8809 3.84298 12.8809 3.84298Z" fill="#263238"/>
<path d="M13.1896 3.70637C13.2282 3.85399 13.2173 4.01029 13.1584 4.15101C13.0793 4.33889 12.9165 4.2938 12.8361 4.12972C12.7632 3.98255 12.7164 3.7095 12.8455 3.57862C12.9745 3.44773 13.141 3.52914 13.1896 3.70637Z" fill="#FF8B7B"/>
<path d="M14.4712 10.8599C14.4712 10.8599 11.3017 12.0147 11.2088 13.5421C11.0367 16.3559 12.182 18.5835 12.182 18.5835L13.2318 18.4707C13.2318 18.4707 13.0448 17.5652 12.9058 15.0163C12.7306 11.813 18.1426 15.0915 17.0279 10.8599H14.4712Z" fill="#407BFF"/>
<path opacity="0.5" d="M14.4712 10.8599C14.4712 10.8599 11.3017 12.0147 11.2088 13.5421C11.0367 16.3559 12.182 18.5835 12.182 18.5835L13.2318 18.4707C13.2318 18.4707 13.0448 17.5652 12.9058 15.0163C12.7306 11.813 18.1426 15.0915 17.0279 10.8599H14.4712Z" fill="white"/>
<path d="M11.8915 18.1948C11.8865 18.1948 12.0585 18.6633 12.0585 18.6633L13.3678 18.5343L13.3023 18.1084L11.8915 18.1948Z" fill="#407BFF"/>
<path d="M10.2774 19.6116H9.59476L9.39526 18.0234H10.0779L10.2774 19.6116Z" fill="#FF8B7B"/>
<path d="M9.58991 19.3862H10.338C10.3659 19.3859 10.3901 19.4053 10.396 19.4326L10.5319 20.0419C10.54 20.0722 10.5334 20.1045 10.5141 20.1291C10.4949 20.1537 10.4652 20.1678 10.434 20.1672C10.1653 20.1628 9.77632 20.1478 9.43654 20.1484C9.04128 20.1484 8.96585 20.1703 8.50139 20.1709C8.22084 20.1709 8.14291 19.8872 8.26012 19.8578C8.79378 19.7401 8.9646 19.7269 9.42532 19.4407C9.47395 19.4073 9.53102 19.3884 9.58991 19.3862Z" fill="#263238"/>
<path opacity="0.2" d="M9.396 18.0239L9.50447 18.8888L10.1815 18.8424L10.0787 18.0239H9.396Z" fill="black"/>
<path d="M13.3773 10.8599C13.3773 10.8599 8.18409 11.3227 8.2402 13.9429C8.29818 16.6684 9.31189 18.5064 9.31189 18.5064H10.3256C10.3256 18.5064 10.1336 17.0924 10.1679 14.4095C10.1778 13.606 11.795 13.3405 13.3736 13.2465C14.7377 13.1651 16.0145 12.3842 16.5444 11.1173L16.6535 10.8599H13.3773Z" fill="#407BFF"/>
<path opacity="0.5" d="M13.3773 10.8599C13.3773 10.8599 8.18409 11.3227 8.2402 13.9429C8.29818 16.6684 9.31189 18.5064 9.31189 18.5064H10.3256C10.3256 18.5064 10.1336 17.0924 10.1679 14.4095C10.1778 13.606 11.795 13.3405 13.3736 13.2465C14.7377 13.1651 16.0145 12.3842 16.5444 11.1173L16.6535 10.8599H13.3773Z" fill="white"/>
<path d="M9.0743 18.2327C9.06993 18.2327 9.24824 18.7036 9.24824 18.7036L10.4727 18.6153L10.401 18.1895L9.0743 18.2327Z" fill="#407BFF"/>
<path d="M14.7407 7.91512L14.0817 10.4659C13.9132 11.1193 13.8282 11.7917 13.8286 12.4667V13.6522C13.8286 13.9516 14.0481 14.1946 14.3193 14.1946H17.697C17.9682 14.1946 18.1877 13.9516 18.1877 13.6522V12.4667C18.1875 11.7917 18.2727 11.1193 18.4414 10.4659L19.0231 8.21134C19.1129 7.86502 18.8772 7.52246 18.5512 7.52246H15.212C14.984 7.52967 14.7899 7.69136 14.7407 7.91512Z" fill="#263238"/>
<path d="M10.5394 12.9597L10.6497 13.5922C10.7083 13.9247 10.9995 14.1947 11.3006 14.1947H15.0556C15.3567 14.1947 15.5543 13.9247 15.4957 13.5922L15.3854 12.9597C15.3187 12.5808 14.9876 12.2739 14.6447 12.2739H11.0425C10.6971 12.2739 10.4733 12.5808 10.5394 12.9597Z" fill="#263238"/>
<path d="M15.417 14.8294H13.4501L13.2581 14.1943H15.609L15.417 14.8294Z" fill="#407BFF"/>
<rect x="14.0823" y="14.8296" width="0.702614" height="4.72259" fill="#407BFF"/>
<path opacity="0.7" d="M14.7849 19.5521H14.0823V14.9429L14.7849 15.0149V19.5521Z" fill="white"/>
<path opacity="0.7" d="M14.6135 19.5523H14.4458V14.98L14.6135 14.9975V19.5523Z" fill="white"/>
<path d="M16.0494 20.2822H12.8175C12.7788 20.2819 12.7448 20.2567 12.7329 20.2198C12.721 20.1829 12.734 20.1424 12.7651 20.1194L13.2776 19.7437C13.5239 19.5624 13.8213 19.4646 14.1267 19.4644H14.7408C15.0459 19.4647 15.3431 19.5625 15.5893 19.7437L16.1024 20.1194C16.1336 20.1425 16.1465 20.1831 16.1345 20.2201C16.1225 20.2571 16.0881 20.2822 16.0494 20.2822Z" fill="#407BFF"/>
</svg>
