<svg width="18" height="20" viewBox="0 0 18 20" fill="none" xmlns="http://www.w3.org/2000/svg">
<path d="M12.8482 4.50262C12.6518 4.30621 12.6518 3.9886 12.8482 3.79219L13.0873 3.55395C13.2844 3.35832 13.6031 3.35832 13.8002 3.55395C13.9958 3.75043 13.9958 4.0673 13.8002 4.26378L13.5605 4.50262C13.3634 4.69752 13.0454 4.69752 12.8482 4.50262Z" fill="#83FFA3"/>
<path opacity="0.4" d="M12.8482 4.50262C12.6518 4.30621 12.6518 3.9886 12.8482 3.79219L13.0873 3.55395C13.2844 3.35832 13.6031 3.35832 13.8002 3.55395C13.9958 3.75043 13.9958 4.0673 13.8002 4.26378L13.5605 4.50262C13.3634 4.69752 13.0454 4.69752 12.8482 4.50262Z" fill="white"/>
<path d="M13.1847 4.16911C12.9313 3.9159 12.9313 3.50603 13.1847 3.25281L13.6531 2.78611C13.9072 2.53354 14.3186 2.53354 14.5727 2.78611C14.8265 3.03919 14.8265 3.44933 14.5727 3.70241L14.1031 4.16911C13.8488 4.42021 13.439 4.42021 13.1847 4.16911Z" fill="#83FFA3"/>
<path d="M13.8375 3.51605C13.4041 3.08645 12.7039 3.08645 12.2705 3.51605L13.8375 5.07803C14.2683 4.64588 14.2683 3.9482 13.8375 3.51605Z" fill="#83FFA3"/>
<path d="M14.4733 6.54488C14.4208 6.54488 14.3782 6.50249 14.3782 6.4502C14.3782 6.3979 14.4208 6.35551 14.4733 6.35551C15.4213 6.35551 16.1898 5.58973 16.1898 4.64509C16.1898 3.70045 15.4213 2.93467 14.4733 2.93467C14.4376 2.93753 14.4033 2.92019 14.3846 2.88981C14.3659 2.85943 14.3659 2.82115 14.3846 2.79077C14.4033 2.76039 14.4376 2.74305 14.4733 2.74591C15.1624 2.7336 15.8046 3.09292 16.1529 3.68568C16.5011 4.27845 16.5011 5.01234 16.1529 5.60511C15.8046 6.19788 15.1624 6.5572 14.4733 6.54488Z" fill="#83FFA3"/>
<path fill-rule="evenodd" clip-rule="evenodd" d="M14.6154 9.13867L16.7843 19.4012L16.8916 19.3981L16.8714 19.6926H11.9192L11.9437 19.3316H12.2778L12.2735 19.3981H13.77L15.4516 14.5442L14.3254 9.21747L14.6154 9.13867ZM16.4776 19.4011L15.4968 14.7506L13.8832 19.4011H16.4776Z" fill="#83FFA3"/>
<path fill-rule="evenodd" clip-rule="evenodd" d="M3.81789 9.1416L5.9844 19.4011H6.09168L6.07145 19.6955H1.11987L1.14378 19.3345H1.47851L1.4736 19.4011H2.97189L4.65347 14.5471L3.52792 9.2204L3.81789 9.1416ZM5.67808 19.4011L4.6972 14.7506L3.08244 19.4011H5.67808Z" fill="#83FFA3"/>
<path d="M15.605 14.2349L15.326 15.0394H4.55298L4.8313 14.2349H15.605Z" fill="#83FFA3"/>
<path d="M15.1808 14.8418L15.3261 15.0397H4.55301L4.40771 14.8418H15.1808Z" fill="#83FFA3"/>
<path opacity="0.2" d="M15.1808 14.8418L15.3261 15.0397H4.55301L4.40771 14.8418H15.1808Z" fill="black"/>
<path d="M13.4477 12.9945H0.28929L0.0986328 12.8051L17.0377 5.625L17.2278 5.81437L13.4477 12.9945Z" fill="#83FFA3"/>
<path opacity="0.4" d="M13.4477 12.9945H0.28929L0.0986328 12.8051L17.0377 5.625L17.2278 5.81437L13.4477 12.9945Z" fill="black"/>
<path d="M1.9633 8.80346L2.32843 8.10929L2.38273 8.13764L2.0176 8.83182L1.9633 8.80346Z" fill="#83FFA3"/>
<path d="M1.66938 9.36122L1.84298 9.03117L1.89727 9.05953L1.72367 9.38957L1.66938 9.36122Z" fill="#83FFA3"/>
<path d="M13.2571 12.8051H0.0986328L3.87929 5.625H17.0377L13.2571 12.8051Z" fill="#83FFA3"/>
<path opacity="0.3" d="M11.9339 11.6537L2.62109 11.6867L5.37613 6.55176C7.58309 6.70936 10.8886 6.72402 14.5044 6.65255L11.9339 11.6537Z" fill="black"/>
<path d="M11.7999 11.6864H2.5686L5.22064 6.64921C8.06395 6.75428 11.109 6.68709 14.3888 6.59668C13.8805 7.86606 12.9585 9.70781 11.7999 11.6864Z" fill="white"/>
<g opacity="0.6">
<path d="M4.19432 11.0925C5.06198 11.0876 5.92965 11.0835 6.79731 11.0803L9.58974 11.0674L10.9918 11.0607C11.0034 11.0588 11.0119 11.0489 11.0119 11.0372C11.0119 11.0255 11.0034 11.0155 10.9918 11.0137L8.38878 11.0259L5.59636 11.0381L4.19432 11.0448C4.18111 11.0448 4.17041 11.0555 4.17041 11.0686C4.17041 11.0818 4.18111 11.0925 4.19432 11.0925Z" fill="#83FFA3"/>
<path d="M10.877 11.1384C11.4333 10.0836 11.9946 9.03128 12.5611 7.98141C12.7245 7.67924 12.888 7.37706 13.0515 7.07489C13.0662 7.04801 13.0251 7.02419 13.0104 7.05045C12.4382 8.09992 11.8728 9.15224 11.3141 10.2074C11.1535 10.51 10.9937 10.8124 10.8347 11.1145C10.8206 11.1414 10.8611 11.1652 10.8758 11.1384H10.877Z" fill="#83FFA3"/>
<path d="M13.0798 7.09668C12.2081 7.10157 11.3365 7.10564 10.4652 7.1089L7.63967 7.12173L6.24193 7.12844C6.22872 7.12844 6.21802 7.13911 6.21802 7.15227C6.21802 7.16543 6.22872 7.17609 6.24193 7.17609C7.11368 7.17121 7.98523 7.16713 8.85657 7.16387L11.6821 7.15105L13.0798 7.14433C13.0931 7.14433 13.1038 7.13366 13.1038 7.1205C13.1038 7.10735 13.0931 7.09668 13.0798 7.09668Z" fill="#83FFA3"/>
<path d="M6.40671 7.01131C5.84516 8.07788 5.27768 9.1418 4.70428 10.2031C4.5408 10.5073 4.3761 10.8111 4.21016 11.1145C4.19545 11.1414 4.23653 11.1652 4.25124 11.1383C4.82832 10.0795 5.4005 9.01576 5.96777 7.94716C6.1288 7.64335 6.28941 7.33934 6.44962 7.03513C6.46434 7.00826 6.42326 6.98443 6.40855 7.01131H6.40671Z" fill="#83FFA3"/>
<path d="M7.33503 10.5831L8.29322 8.70038L8.55131 8.19458C8.56541 8.16771 8.52434 8.14327 8.51024 8.17076L7.52139 10.1072L7.2915 10.5562C7.27801 10.5837 7.31909 10.6075 7.33257 10.58L7.33503 10.5831Z" fill="#83FFA3"/>
<path d="M5.0606 10.5911L5.61234 9.50985C5.62583 9.48236 5.58476 9.45854 5.57127 9.48541L5.01953 10.5673C5.00604 10.5947 5.04712 10.6186 5.0606 10.5911Z" fill="#83FFA3"/>
<path d="M10.5001 10.5828C10.9592 9.75753 11.3644 8.90354 11.7997 8.06543C11.9064 7.86018 12.0143 7.65493 12.1271 7.45457C12.1418 7.42769 12.1007 7.40387 12.086 7.43074C11.6268 8.25541 11.221 9.11001 10.7863 9.94751C10.6797 10.1534 10.5718 10.358 10.459 10.5584C10.4443 10.5846 10.4847 10.6091 10.5001 10.5822V10.5828Z" fill="#83FFA3"/>
<path d="M7.98099 10.5767C8.39786 9.75998 8.81902 8.94447 9.23467 8.12714L9.37567 7.8498L9.45169 7.70014L9.48908 7.62562C9.49951 7.60546 9.51545 7.54926 9.53629 7.53826C9.567 7.53398 9.59815 7.53398 9.62886 7.53826H9.74595H9.99669C10.3698 7.5346 10.7428 7.53154 11.1155 7.5291C11.4925 7.5291 11.8689 7.52605 12.246 7.53277C12.2575 7.5309 12.266 7.52094 12.266 7.50925C12.266 7.49756 12.2575 7.48759 12.246 7.48573C11.3368 7.46985 10.427 7.48573 9.51851 7.49611C9.50998 7.496 9.50204 7.50042 9.49767 7.50772C8.98393 8.52725 8.45917 9.54129 7.93992 10.5578C7.92582 10.5853 7.96689 10.6091 7.98099 10.5816V10.5767Z" fill="#83FFA3"/>
<path d="M10.5038 10.5652C10.28 9.76187 10.0134 8.9708 9.75712 8.1779C9.68478 7.95473 9.61285 7.73176 9.54133 7.509C9.53213 7.47968 9.48615 7.49189 9.49535 7.52122C9.75467 8.33428 10.0269 9.14367 10.2764 9.95979C10.3377 10.165 10.399 10.3709 10.4603 10.578C10.4644 10.59 10.4771 10.5967 10.4894 10.5933C10.5016 10.5899 10.509 10.5775 10.5063 10.5652H10.5038Z" fill="#83FFA3"/>
<path d="M12.1142 7.48791C11.6079 7.91551 11.0647 8.29425 10.5234 8.67421C9.93731 9.08532 9.34633 9.4891 8.77068 9.91365C8.48623 10.1232 8.20484 10.3376 7.9351 10.5654C7.9118 10.585 7.94552 10.6186 7.96882 10.599C8.485 10.1635 9.03797 9.77254 9.59033 9.38403C10.1721 8.97475 10.76 8.57341 11.3338 8.15253C11.6109 7.94972 11.8856 7.74203 12.148 7.5215C12.1713 7.50135 12.1375 7.46836 12.1142 7.48791Z" fill="#83FFA3"/>
<path d="M7.89216 10.57C8.59349 10.5901 9.29481 10.5981 9.99614 10.5987C10.1653 10.5987 10.3352 10.5987 10.5044 10.595C10.5159 10.5932 10.5244 10.5832 10.5244 10.5715C10.5244 10.5598 10.5159 10.5499 10.5044 10.548C9.80119 10.5614 9.09435 10.548 8.39302 10.5346C8.22627 10.5309 8.05891 10.5278 7.89216 10.5229C7.88058 10.5248 7.87207 10.5348 7.87207 10.5465C7.87207 10.5582 7.88058 10.5681 7.89216 10.57Z" fill="#83FFA3"/>
<path d="M6.91996 10.5988C7.36687 9.76986 7.77822 8.92381 8.21164 8.08692C8.31831 7.88004 8.42662 7.67398 8.53656 7.46873C8.55066 7.44185 8.50959 7.41803 8.49548 7.4449C8.04857 8.27385 7.63722 9.1199 7.2038 9.95678C7.09713 10.1639 6.98984 10.3703 6.87888 10.575C6.86478 10.6019 6.90585 10.6257 6.91996 10.5988Z" fill="#83FFA3"/>
<path d="M5.6 10.5887C5.87955 10.0414 6.15951 9.49423 6.43987 8.9473C6.57965 8.67363 6.71942 8.39996 6.8592 8.1263C6.92786 7.99252 6.99591 7.85813 7.06396 7.72435C7.08603 7.68036 7.11974 7.56919 7.16756 7.55025C7.20819 7.54394 7.24955 7.54394 7.29017 7.55025H7.42627C7.78183 7.54414 8.13801 7.53742 8.49419 7.55025C8.52423 7.55025 8.52423 7.50382 8.49419 7.5026C8.04238 7.48855 7.59056 7.5026 7.13936 7.50932C7.13083 7.50921 7.12289 7.51363 7.11852 7.52093C6.60295 8.53924 6.08002 9.5545 5.56077 10.571C5.54667 10.5979 5.58774 10.6223 5.60184 10.5948L5.6 10.5887Z" fill="#83FFA3"/>
<path d="M6.92355 10.5872C7.01489 9.56771 7.06639 8.54574 7.1608 7.52681C7.16386 7.49627 7.11666 7.49627 7.11359 7.52681C7.01919 8.54574 6.96769 9.56771 6.87573 10.5872C6.87573 10.6172 6.92048 10.6172 6.92355 10.5872Z" fill="#83FFA3"/>
<path d="M8.50108 7.50326C7.7409 8.3206 6.95129 9.10984 6.17947 9.91557C5.96899 10.1343 5.76055 10.3548 5.55416 10.5771C5.53332 10.5991 5.56703 10.6327 5.58788 10.6101C6.35235 9.78545 7.14808 8.9895 7.92726 8.17827C8.13161 7.96569 8.33412 7.75189 8.53479 7.53686C8.55564 7.51487 8.52192 7.48127 8.50108 7.50326Z" fill="#83FFA3"/>
<path d="M5.54106 10.5832C5.99287 10.6052 6.44714 10.6247 6.89957 10.6119C6.93022 10.6119 6.93022 10.5636 6.89957 10.5648C6.44714 10.5771 5.99287 10.5581 5.54106 10.5361C5.5104 10.5361 5.5104 10.5819 5.54106 10.5832Z" fill="#83FFA3"/>
<path d="M6.27007 7.77719C6.24716 7.81494 6.24032 7.86024 6.25106 7.90303C6.26269 7.93937 6.29238 7.96712 6.32953 7.97634C6.42041 7.99114 6.51315 7.96445 6.58211 7.90364C6.65391 7.85144 6.69448 7.76669 6.69 7.67823C6.67955 7.60395 6.61304 7.5505 6.53797 7.55606C6.48557 7.56201 6.43706 7.5865 6.40126 7.62509C6.38138 7.64336 6.36255 7.66274 6.34486 7.68312C6.32784 7.70013 6.3154 7.72114 6.30869 7.74421C6.30317 7.77414 6.34915 7.78697 6.35467 7.75704C6.36018 7.7271 6.39451 7.69595 6.41597 7.67457C6.44005 7.64759 6.46921 7.62559 6.5018 7.60982C6.52783 7.59823 6.5576 7.59827 6.5836 7.60994C6.60959 7.62161 6.62935 7.64379 6.63789 7.6709C6.64852 7.73573 6.62544 7.8015 6.57659 7.84561C6.52476 7.89938 6.45499 7.93241 6.38041 7.93846C6.34984 7.94279 6.3192 7.93099 6.29949 7.90731C6.284 7.87406 6.28702 7.83516 6.30746 7.80468C6.32156 7.7778 6.28049 7.75398 6.26639 7.78086L6.27007 7.77719Z" fill="#83FFA3"/>
</g>
<path opacity="0.2" d="M17.0377 5.62476L13.2589 12.8049H0.0986328L3.87929 5.62476H7.65137L5.72885 6.50257H5.72456C4.74369 6.85871 3.9596 7.40421 3.55867 8.08532C2.6391 9.64547 4.08405 11.3229 6.78329 11.8373C9.48254 12.3516 12.4141 11.4988 13.3319 9.93869C13.5234 9.62675 13.6189 9.26569 13.6065 8.90022L13.8045 5.62109L17.0377 5.62476Z" fill="black"/>
<path d="M5.11239 4.41844C4.95309 4.69736 4.79132 4.98666 4.63694 5.2729C4.48256 5.55914 4.32941 5.84783 4.2027 6.1359C4.16949 6.20792 4.1412 6.27933 4.11167 6.35073C4.1086 6.35745 4.11167 6.35073 4.11167 6.35073C4.11167 6.35073 4.11167 6.35562 4.10798 6.3605C4.10581 6.37875 4.10581 6.39718 4.10798 6.41543C4.1194 6.47487 4.1382 6.53268 4.16395 6.58754C4.19225 6.64857 4.22546 6.71632 4.26298 6.78162C4.42848 7.05334 4.61218 7.31373 4.81285 7.56101L4.57298 7.8143C4.2875 7.60657 4.03032 7.36307 3.80783 7.08984C3.67881 6.93557 3.57899 6.75939 3.51321 6.56984C3.49372 6.50779 3.48175 6.44367 3.47754 6.37881C3.47546 6.34053 3.4767 6.30214 3.48123 6.26407C3.48335 6.24356 3.48664 6.22318 3.49107 6.20304C3.49107 6.19266 3.4966 6.18167 3.49907 6.1713L3.50706 6.14383C3.53535 6.05961 3.56242 5.97416 3.59317 5.89238C3.7137 5.57167 3.85126 5.25753 4.00527 4.95126C4.15965 4.64609 4.32018 4.35375 4.49732 4.05957L5.11239 4.41844Z" fill="#FFC3BD"/>
<path d="M4.72362 7.48047L5.05083 7.58667L4.7759 8.04685C4.7759 8.04685 4.53479 7.93882 4.48682 7.71972L4.72362 7.48047Z" fill="#FFC3BD"/>
<path d="M5.4987 7.76452L5.17948 8.11912L4.77661 8.0471L5.05155 7.58691L5.4987 7.76452Z" fill="#FFC3BD"/>
<path d="M7.02399 2.27657C7.01476 2.31258 7.02399 2.34675 7.05044 2.35286C7.07688 2.35896 7.10087 2.33455 7.11194 2.29854C7.12301 2.26253 7.11194 2.22774 7.08549 2.22164C7.05905 2.21553 7.03321 2.23995 7.02399 2.27657Z" fill="#263238"/>
<path d="M7.02328 2.34619C7.03817 2.46771 7.06984 2.58661 7.11738 2.69957C7.05719 2.7231 6.98958 2.71885 6.93286 2.68797L7.02328 2.34619Z" fill="#ED847E"/>
<path d="M6.94274 2.04176C6.93466 2.03827 6.92944 2.03036 6.92944 2.02162C6.92944 2.01288 6.93466 2.00497 6.94274 2.00148C7.00839 1.97398 7.08342 1.9799 7.14386 2.01735C7.15365 2.02468 7.15607 2.03827 7.1494 2.04848C7.14223 2.05819 7.12851 2.06037 7.11865 2.05336C7.07019 2.02451 7.01073 2.02042 6.95873 2.04237C6.95353 2.04428 6.94777 2.04406 6.94274 2.04176Z" fill="#263238"/>
<path d="M5.76973 2.41846C5.83677 2.75719 5.90381 3.37789 5.66455 3.60371C5.66455 3.60371 5.75804 3.94793 6.39218 3.94793C7.09028 3.94793 6.72616 3.60371 6.72616 3.60371C6.34482 3.51399 6.35712 3.23324 6.41863 2.97019L5.76973 2.41846Z" fill="#FFC3BD"/>
<path d="M5.54786 3.77793C5.51526 3.59483 5.47897 3.38732 5.59953 3.33422C5.73177 3.27319 6.42679 3.26953 6.65129 3.42333C6.87579 3.57713 6.77431 3.93112 6.77431 3.93112L5.54786 3.77793Z" fill="#263238"/>
<path opacity="0.6" d="M5.54786 3.77793C5.51526 3.59483 5.47897 3.38732 5.59953 3.33422C5.73177 3.27319 6.42679 3.26953 6.65129 3.42333C6.87579 3.57713 6.77431 3.93112 6.77431 3.93112L5.54786 3.77793Z" fill="#83FFA3"/>
<path fill-rule="evenodd" clip-rule="evenodd" d="M3.43689 19.3516C3.40056 19.3774 3.35863 19.3806 3.32064 19.3606C3.28076 19.3482 3.24197 19.3292 3.20501 19.3041C3.20092 19.3019 3.19822 19.2961 3.19824 19.2898C3.19864 19.2833 3.2015 19.2778 3.20562 19.2754C3.21178 19.2709 3.35755 19.1848 3.41905 19.2288C3.43297 19.2377 3.44353 19.2551 3.44796 19.2763C3.45587 19.3023 3.4514 19.3327 3.43689 19.3516ZM3.41005 19.2584L3.39714 19.2521V19.2566C3.34316 19.2506 3.28894 19.2622 3.23845 19.2907C3.30488 19.3266 3.39775 19.358 3.42297 19.3266C3.42666 19.3239 3.43281 19.3149 3.42666 19.2862C3.42419 19.2739 3.41812 19.2637 3.41005 19.2584Z" fill="#83FFA3"/>
<path fill-rule="evenodd" clip-rule="evenodd" d="M3.21048 19.2772H3.20556C3.20353 19.2769 3.20162 19.2761 3.20002 19.2748C3.19701 19.272 3.19583 19.2678 3.19695 19.2638C3.19701 19.2636 3.19711 19.2633 3.19725 19.2629C3.20142 19.2501 3.24078 19.1291 3.30028 19.0984C3.31545 19.0904 3.33329 19.0891 3.34949 19.0948C3.36627 19.0983 3.37815 19.1131 3.37778 19.1302C3.37655 19.1826 3.26338 19.262 3.21048 19.2772ZM3.34217 19.1132H3.33909C3.32967 19.1106 3.31964 19.1115 3.3108 19.1156C3.26989 19.1497 3.24031 19.1952 3.22592 19.2462C3.28066 19.2206 3.3557 19.1583 3.3557 19.1272C3.3557 19.1242 3.3557 19.1174 3.34217 19.1132Z" fill="#83FFA3"/>
<path fill-rule="evenodd" clip-rule="evenodd" d="M6.8996 19.538C6.87991 19.5749 6.82394 19.587 6.76244 19.587C6.71521 19.5864 6.6681 19.5803 6.62159 19.5689C6.61716 19.5674 6.6138 19.5623 6.61297 19.556C6.61212 19.5495 6.61435 19.5429 6.61851 19.5397C6.62405 19.5345 6.78704 19.4047 6.86454 19.434C6.87929 19.4387 6.89199 19.4518 6.8996 19.4701C6.90997 19.4904 6.90997 19.5177 6.8996 19.538ZM6.85765 19.4606C6.8505 19.4592 6.84326 19.4592 6.83612 19.4606H6.83427C6.77041 19.4713 6.7086 19.499 6.65221 19.5423C6.73894 19.5595 6.85703 19.5586 6.87917 19.5165C6.88409 19.5105 6.88717 19.501 6.87917 19.4821C6.87438 19.4712 6.86661 19.4634 6.85765 19.4606Z" fill="#83FFA3"/>
<path fill-rule="evenodd" clip-rule="evenodd" d="M6.62609 19.5289H6.62178C6.61952 19.5293 6.61717 19.5291 6.61502 19.5283C6.61178 19.5259 6.61013 19.5219 6.61071 19.5179C6.61071 19.513 6.62117 19.3879 6.68268 19.3397C6.69967 19.3252 6.72193 19.3184 6.74418 19.3208C6.77432 19.3238 6.78539 19.3391 6.78539 19.3513C6.794 19.4068 6.68206 19.5039 6.62609 19.5289ZM6.74168 19.341H6.73552C6.72137 19.3411 6.70768 19.3461 6.69678 19.3551C6.66205 19.3953 6.64059 19.4452 6.63527 19.4979C6.69309 19.4631 6.76874 19.3844 6.76382 19.3532C6.76379 19.3531 6.76376 19.353 6.76372 19.3528C6.76304 19.3499 6.761 19.341 6.74168 19.341Z" fill="#83FFA3"/>
<path d="M6.10815 19.5178H6.57499L6.62112 18.4448H6.1549L6.10815 19.5178Z" fill="#FFC3BD"/>
<path d="M2.68701 19.1539L3.14278 19.2522L3.601 18.253L3.14462 18.1548L2.68701 19.1539Z" fill="#FFC3BD"/>
<path d="M3.18719 19.2065L2.67422 19.0966C2.65559 19.0926 2.63665 19.102 2.62871 19.1192L2.45095 19.5019C2.4423 19.5209 2.44283 19.5427 2.45241 19.5613C2.462 19.5798 2.47957 19.593 2.50016 19.5971C2.67976 19.6325 2.76895 19.6404 2.99222 19.6893C3.13122 19.7192 3.44429 19.7948 3.63558 19.8357C3.82686 19.8766 3.89329 19.6941 3.8201 19.6606C3.4855 19.5086 3.34588 19.3749 3.25485 19.2504C3.23852 19.228 3.21443 19.2124 3.18719 19.2065Z" fill="#263238"/>
<path d="M6.572 19.4639H6.06211C6.04304 19.4638 6.02656 19.4771 6.02274 19.4956L5.93048 19.907C5.92574 19.9271 5.93063 19.9483 5.94373 19.9644C5.95683 19.9805 5.97668 19.9897 5.99753 19.9894C6.18205 19.9863 6.44714 19.9759 6.67841 19.9759C6.94842 19.9759 7.18153 19.9906 7.49891 19.9906C7.6902 19.9906 7.74494 19.7983 7.66313 19.7806C7.2984 19.7013 7.00009 19.6927 6.68456 19.4999C6.65106 19.4779 6.61213 19.4654 6.572 19.4639Z" fill="#263238"/>
<path d="M7.50243 4.16309C7.65435 4.50304 7.82042 4.85214 7.99449 5.18599C8.08121 5.35322 8.17163 5.51801 8.26512 5.67425C8.35551 5.82868 8.45533 5.97747 8.56404 6.11979L8.60341 6.16862C8.61325 6.17777 8.60341 6.1735 8.61878 6.18449C8.64333 6.20581 8.66966 6.225 8.69751 6.24186C8.77134 6.28653 8.84751 6.32728 8.9257 6.36392C9.09054 6.44265 9.26584 6.51833 9.44359 6.58974C9.79848 6.73317 10.1638 6.87049 10.5267 7.00782L10.4382 7.34472C10.0444 7.28199 9.65431 7.19846 9.26953 7.09448C9.07639 7.03955 8.88326 6.9834 8.68829 6.91138C8.58571 6.87379 8.48549 6.83018 8.38813 6.78077C8.33031 6.75103 8.27498 6.71674 8.22268 6.67824C8.18931 6.65334 8.15804 6.62579 8.12919 6.59585L8.07199 6.53481C7.93157 6.3773 7.80347 6.20938 7.6888 6.03251C7.57501 5.86223 7.47229 5.68829 7.37388 5.51252C7.17944 5.1626 7.00489 4.80214 6.85107 4.43285L7.50243 4.16309Z" fill="#FFC3BD"/>
<path d="M4.68489 3.70853C4.24758 3.80801 3.51318 5.96369 3.51318 5.96369L4.22789 6.19927C4.22789 6.19927 4.95737 5.12693 5.20524 4.61242C5.46418 4.06862 5.13266 3.60661 4.68489 3.70853Z" fill="#83FFA3"/>
<path opacity="0.5" d="M4.68489 3.70853C4.24758 3.80801 3.51318 5.96369 3.51318 5.96369L4.22789 6.19927C4.22789 6.19927 4.95737 5.12693 5.20524 4.61242C5.46418 4.06862 5.13266 3.60661 4.68489 3.70853Z" fill="black"/>
<path d="M4.35208 6.09362C4.35208 6.09362 3.65152 5.96118 3.49098 5.8623C3.43501 5.94287 3.36797 6.2346 3.41348 6.32066C3.459 6.40672 4.11159 6.53061 4.20016 6.47995C4.28873 6.4293 4.35208 6.09362 4.35208 6.09362Z" fill="#263238"/>
<path opacity="0.6" d="M4.35208 6.09362C4.35208 6.09362 3.65152 5.96118 3.49098 5.8623C3.43501 5.94287 3.36797 6.2346 3.41348 6.32066C3.459 6.40672 4.11159 6.53061 4.20016 6.47995C4.28873 6.4293 4.35208 6.09362 4.35208 6.09362Z" fill="#83FFA3"/>
<path opacity="0.3" d="M4.96829 4.47383C4.83482 4.60627 4.71365 4.98223 4.70996 5.46011C4.86434 5.21598 5.02365 4.95415 5.13497 4.74481C5.08208 4.55622 5.02303 4.42134 4.96829 4.47383Z" fill="black"/>
<path d="M7.30009 3.7324C7.30009 3.7324 7.79706 4.28901 7.32777 7.73614H4.8312C4.81398 7.3559 5.05447 5.50051 4.68481 3.70798C4.96086 3.65508 5.24007 3.62002 5.52069 3.60301C5.87427 3.58285 6.22872 3.58285 6.5823 3.60301C6.82459 3.62753 7.06458 3.6708 7.30009 3.7324Z" fill="#83FFA3"/>
<path opacity="0.5" d="M7.30009 3.7324C7.30009 3.7324 7.79706 4.28901 7.32777 7.73614H4.8312C4.81398 7.3559 5.05447 5.50051 4.68481 3.70798C4.96086 3.65508 5.24007 3.62002 5.52069 3.60301C5.87427 3.58285 6.22872 3.58285 6.5823 3.60301C6.82459 3.62753 7.06458 3.6708 7.30009 3.7324Z" fill="black"/>
<path opacity="0.3" d="M6.92993 4.8335C6.97729 5.3364 7.29897 5.97481 7.48718 6.2641C7.51179 5.93208 7.5247 5.64279 7.52839 5.39011L6.92993 4.8335Z" fill="black"/>
<path d="M6.68208 4.09136C6.38131 4.65591 7.95158 6.49178 7.95158 6.49178L8.50022 5.93943C8.50022 5.93943 7.78797 4.70352 7.62068 4.15545C7.41401 3.47799 6.91089 3.66169 6.68208 4.09136Z" fill="#83FFA3"/>
<path opacity="0.5" d="M6.68208 4.09136C6.38131 4.65591 7.95158 6.49178 7.95158 6.49178L8.50022 5.93943C8.50022 5.93943 7.78797 4.70352 7.62068 4.15545C7.41401 3.47799 6.91089 3.66169 6.68208 4.09136Z" fill="black"/>
<path d="M8.47808 5.83008C8.47808 5.83008 8.00202 6.35679 7.83472 6.4404C7.87531 6.52951 8.0912 6.73885 8.19023 6.74557C8.28925 6.75228 8.7321 6.26097 8.73395 6.15965C8.73579 6.05834 8.47808 5.83008 8.47808 5.83008Z" fill="#263238"/>
<path opacity="0.6" d="M8.47808 5.83008C8.47808 5.83008 8.00202 6.35679 7.83472 6.4404C7.87531 6.52951 8.0912 6.73885 8.19023 6.74557C8.28925 6.75228 8.7321 6.26097 8.73395 6.15965C8.73579 6.05834 8.47808 5.83008 8.47808 5.83008Z" fill="#83FFA3"/>
<path d="M10.4192 7.01427L10.8712 6.8208L11.0121 7.30906C11.0121 7.30906 10.667 7.53305 10.3909 7.33714L10.4192 7.01427Z" fill="#FFC3BD"/>
<path d="M11.3755 7.05214C11.3607 7.06193 11.3407 7.05813 11.3306 7.0436L10.8287 6.3051C10.8238 6.29809 10.822 6.28941 10.8236 6.28103C10.8252 6.27264 10.8301 6.26526 10.8373 6.26055C10.8444 6.25568 10.8531 6.25384 10.8616 6.25545C10.87 6.25706 10.8775 6.26198 10.8822 6.26909L11.3841 7.00759C11.389 7.0146 11.3909 7.02328 11.3893 7.03166C11.3876 7.04004 11.3827 7.04743 11.3755 7.05214Z" fill="#263238"/>
<path d="M11.348 6.85644L11.5467 7.14818L11.0122 7.30686L10.8713 6.81982L11.348 6.85644Z" fill="#FFC3BD"/>
<path opacity="0.2" d="M6.62095 18.4453L6.59758 18.9983H6.13013L6.15411 18.4453H6.62095Z" fill="black"/>
<path opacity="0.2" d="M3.14463 18.1558L3.60101 18.2534L3.36483 18.7685L2.90845 18.6703L3.14463 18.1558Z" fill="black"/>
<path d="M5.82756 1.88959C5.74022 2.34123 5.66579 2.60123 5.83309 2.88686C6.08466 3.31409 6.68988 3.25306 6.91131 2.83742C7.11121 2.46268 7.21884 1.78766 6.82766 1.49898C6.65235 1.3688 6.4216 1.338 6.21785 1.41758C6.0141 1.49716 5.86642 1.67576 5.82756 1.88959Z" fill="#FFC3BD"/>
<path d="M5.64804 1.66651C5.9771 1.5597 6.60078 1.32961 6.82098 1.8551C7.04117 2.38059 6.1444 2.92927 5.91621 2.92988C5.73292 2.93171 5.28638 1.78857 5.64804 1.66651Z" fill="#263238"/>
<path d="M6.33323 1.8879C6.97782 2.23883 7.56336 1.7341 7.30196 1.16344C7.04056 0.592786 6.46916 0.67518 6.64691 0.953488C6.82467 1.2318 6.33323 0.810062 5.99371 0.940061C5.75568 1.031 6.06444 1.17931 6.09335 1.28673C6.12226 1.39414 5.47028 1.3972 5.38356 1.55832C5.29684 1.71945 5.60991 2.05513 5.77044 2.00264C5.93097 1.95015 6.21944 1.82503 6.33323 1.8879Z" fill="#263238"/>
<path d="M6.51969 2.15805C6.49843 2.27035 6.5153 2.38648 6.56767 2.48824C6.63717 2.62129 6.75773 2.58162 6.81001 2.45528C6.85737 2.34115 6.87766 2.13486 6.7731 2.04392C6.66854 1.95298 6.54676 2.02317 6.51969 2.15805Z" fill="#FFC3BD"/>
<path d="M6.44215 7.73621C6.44215 7.73621 5.91257 11.2761 5.62164 12.6017C5.30304 14.0543 3.60053 18.7093 3.60053 18.7093L2.76465 18.5298C2.76465 18.5298 4.03969 14.1715 4.22113 12.7317C4.41857 11.1711 4.83128 7.73438 4.83128 7.73438L6.44215 7.73621Z" fill="#263238"/>
<path d="M3.8004 18.4325C3.80409 18.4325 3.64479 18.7322 3.64479 18.7322L2.70435 18.5301L2.78369 18.25L3.8004 18.4325Z" fill="#83FFA3"/>
<path opacity="0.3" d="M6.10754 8.99698C5.49247 9.116 5.55951 11.3827 5.63332 12.5485C5.80984 11.7245 6.06879 10.1389 6.24531 9.01346C6.20256 8.99276 6.15402 8.98695 6.10754 8.99698Z" fill="black"/>
<path d="M7.32654 7.73584C7.32654 7.73584 7.38805 11.1988 7.34007 12.6111C7.28841 14.0802 6.77298 18.8908 6.77298 18.8908H5.98077C5.98077 18.8908 5.95125 14.1662 5.91619 12.7234C5.87805 11.1506 5.68677 7.73584 5.68677 7.73584L7.32654 7.73584Z" fill="#263238"/>
<path d="M6.92381 18.5786C6.9275 18.5786 6.87891 18.9045 6.87891 18.9045H5.91695L5.89111 18.614L6.92381 18.5786Z" fill="#83FFA3"/>
</svg>
