<svg width="13" height="13" viewBox="0 0 13 13" fill="none" xmlns="http://www.w3.org/2000/svg">
<rect opacity="0.1" x="0.787354" y="0.654297" width="11.492" height="11.492" rx="2.18203" fill="#473BF0"/>
<path fill-rule="evenodd" clip-rule="evenodd" d="M5.15137 5.26238C5.15137 4.51532 5.70754 3.70898 6.60605 3.70898C7.50457 3.70898 8.06074 4.51532 8.06074 5.26238C8.06074 6.36948 7.30564 7.05476 6.60605 7.05476C5.90647 7.05476 5.15137 6.36948 5.15137 5.26238ZM5.39908 5.38826C5.45169 6.27298 6.04933 6.81571 6.60611 6.81571C7.16289 6.81571 7.7604 6.2731 7.81326 5.38862C7.45262 5.34034 7.11561 5.18823 6.84516 4.94972C6.51107 5.24535 6.08497 5.40702 5.6328 5.40702C5.55558 5.40702 5.47776 5.39949 5.39908 5.38826Z" fill="#473BF0"/>
<path opacity="0.5" d="M8.78474 7.6631L7.52426 6.90918C7.22883 7.16343 6.87571 7.30324 6.53325 7.30324C6.19079 7.30324 5.83767 7.16343 5.54225 6.90918L4.28176 7.6631C4.10029 7.77161 3.98755 7.97015 3.98755 8.18114V9.11584C3.98755 9.18266 4.04186 9.23668 4.10877 9.23668H6.41203V8.02828C6.41203 7.96145 6.46621 7.90744 6.53325 7.90744C6.60029 7.90744 6.65447 7.96145 6.65447 8.02828V9.23668H8.95773C9.02464 9.23668 9.07895 9.18266 9.07895 9.11584V8.18114C9.07895 7.97015 8.96621 7.77161 8.78474 7.6631Z" fill="#473BF0"/>
</svg>
