<svg width="13" height="13" viewBox="0 0 13 13" fill="none" xmlns="http://www.w3.org/2000/svg">
<rect opacity="0.1" x="0.787354" y="0.78418" width="11.492" height="11.492" rx="2.18203" fill="#68D585"/>
<path opacity="0.5" d="M8.9574 6.45752C8.7388 7.44046 7.68221 8.18843 6.41466 8.18843C6.23494 8.18843 6.05557 8.17223 5.87866 8.1415C6.31328 8.51781 6.98617 8.70763 7.68153 8.60479L8.61225 9.06431C8.62809 9.07207 8.64529 9.07596 8.66249 9.07596C8.68305 9.07596 8.70351 9.07041 8.7216 9.05943C8.75465 9.03923 8.77488 9.00351 8.77488 8.96501V8.11864C9.06518 7.8586 9.22444 7.53065 9.22444 7.18995C9.22444 6.92946 9.13037 6.67785 8.9574 6.45752Z" fill="#68D585"/>
<path d="M6.38803 4.12988C5.06447 4.12988 3.98779 4.97649 3.98779 6.01715C3.98779 6.41714 4.14564 6.79848 4.44498 7.12286V8.23746C4.44498 8.27598 4.46555 8.31162 4.49916 8.33193C4.51756 8.34292 4.53836 8.34847 4.55928 8.34847C4.57676 8.34847 4.59425 8.34459 4.61037 8.33682L5.67676 7.81893C5.90935 7.87566 6.14835 7.90441 6.38803 7.90441C7.71158 7.90441 8.78826 7.05781 8.78826 6.01715C8.78826 4.97649 7.71158 4.12988 6.38803 4.12988Z" fill="#68D585"/>
</svg>
