<svg width="13" height="13" viewBox="0 0 13 13" fill="none" xmlns="http://www.w3.org/2000/svg">
<rect opacity="0.1" x="0.556885" y="0.78418" width="11.492" height="11.492" rx="2.18203" fill="#161C2D"/>
<path d="M7.48697 5.49127C7.1793 5.18492 6.77737 5.03174 6.37544 5.03174V6.6028L5.26392 7.71433C5.87794 8.32835 6.87164 8.32835 7.48566 7.71433C8.09968 7.1003 8.09968 6.1053 7.48697 5.49127Z" fill="#161C2D"/>
<path opacity="0.5" fill-rule="evenodd" clip-rule="evenodd" d="M3.75708 6.60281C3.75708 5.15613 4.92883 3.98438 6.37552 3.98438C7.8222 3.98438 8.99395 5.15613 8.99395 6.60281C8.99395 8.04819 7.8222 9.22125 6.37552 9.22125C4.92883 9.22125 3.75708 8.0495 3.75708 6.60281ZM4.28075 6.60288C4.28075 7.76023 5.21815 8.69763 6.3755 8.69763C7.53285 8.69763 8.47025 7.76023 8.47025 6.60288C8.47025 5.44553 7.53285 4.50813 6.3755 4.50813C5.21815 4.50813 4.28075 5.44553 4.28075 6.60288Z" fill="#161C2D"/>
</svg>
