<svg width="26" height="4" viewBox="0 0 26 4" fill="none" xmlns="http://www.w3.org/2000/svg">
<path d="M0.317855 3.30127C0.287985 3.30127 0.263547 3.29177 0.244539 3.27276C0.225531 3.25375 0.216027 3.22931 0.216027 3.19944V0.551911C0.216027 0.522042 0.225531 0.497603 0.244539 0.478595C0.263547 0.459587 0.287985 0.450083 0.317855 0.450083H1.56016C1.79368 0.450083 1.98512 0.482668 2.13447 0.547838C2.28382 0.613008 2.39379 0.70669 2.46439 0.828884C2.53771 0.948362 2.57437 1.09092 2.57437 1.25656C2.57437 1.35432 2.55536 1.44121 2.51734 1.51724C2.48204 1.59056 2.43724 1.65165 2.38293 1.70053C2.33134 1.74941 2.28246 1.78471 2.2363 1.80643C2.33948 1.85531 2.43045 1.93542 2.5092 2.04675C2.59066 2.15808 2.63139 2.28842 2.63139 2.43777C2.63139 2.61698 2.59066 2.77176 2.5092 2.9021C2.43045 3.02973 2.31369 3.12884 2.15891 3.19944C2.00684 3.26733 1.81948 3.30127 1.59682 3.30127H0.317855ZM0.945116 2.77176H1.51535C1.63212 2.77176 1.72037 2.73782 1.78011 2.66994C1.83985 2.60205 1.86971 2.52466 1.86971 2.43777C1.86971 2.34273 1.83849 2.26262 1.77603 2.19745C1.71629 2.13228 1.6294 2.0997 1.51535 2.0997H0.945116V2.77176ZM0.945116 1.58241H1.4787C1.59003 1.58241 1.67285 1.5539 1.72716 1.49688C1.78418 1.43985 1.81269 1.36654 1.81269 1.27693C1.81269 1.19003 1.78418 1.11943 1.72716 1.06512C1.67285 1.0081 1.59003 0.979589 1.4787 0.979589H0.945116V1.58241ZM3.11831 3.30127C3.08844 3.30127 3.06401 3.29177 3.045 3.27276C3.02599 3.25375 3.01649 3.22931 3.01649 3.19944V1.28507C3.01649 1.25792 3.02599 1.23484 3.045 1.21583C3.06401 1.19411 3.08844 1.18325 3.11831 1.18325H3.58672C3.61659 1.18325 3.64103 1.19411 3.66004 1.21583C3.67905 1.23484 3.68855 1.25792 3.68855 1.28507V1.448C3.76187 1.36382 3.84876 1.29865 3.94923 1.25249C4.05242 1.20633 4.16782 1.18325 4.29545 1.18325H4.47466C4.50182 1.18325 4.5249 1.19275 4.54391 1.21176C4.56563 1.23077 4.57649 1.2552 4.57649 1.28507V1.70461C4.57649 1.73176 4.56563 1.7562 4.54391 1.77792C4.5249 1.79693 4.50182 1.80643 4.47466 1.80643H4.07957C3.96824 1.80643 3.88135 1.83766 3.81889 1.90012C3.75915 1.95985 3.72928 2.04539 3.72928 2.15672V3.19944C3.72928 3.22931 3.71842 3.25375 3.6967 3.27276C3.67769 3.29177 3.65325 3.30127 3.62338 3.30127H3.11831ZM5.44308 3.342C5.29645 3.342 5.16475 3.31485 5.04798 3.26054C4.93394 3.20351 4.84297 3.12748 4.77509 3.03244C4.7072 2.9374 4.67326 2.83014 4.67326 2.71067C4.67326 2.51787 4.752 2.36581 4.9095 2.25448C5.06699 2.14043 5.27608 2.06304 5.53676 2.02231L6.0459 1.94492V1.8879C6.0459 1.79014 6.02553 1.71547 5.9848 1.66387C5.94407 1.61228 5.8694 1.58648 5.76078 1.58648C5.68475 1.58648 5.6223 1.60142 5.57342 1.63129C5.52726 1.66116 5.4906 1.70189 5.46344 1.75348C5.439 1.78878 5.40506 1.80643 5.36162 1.80643H4.90543C4.87556 1.80643 4.85247 1.79829 4.83618 1.78199C4.81989 1.76299 4.8131 1.74126 4.81582 1.71682C4.81582 1.66795 4.83347 1.61228 4.86877 1.54983C4.90678 1.48466 4.96381 1.42084 5.03984 1.35839C5.11587 1.29594 5.21362 1.24434 5.3331 1.20361C5.45258 1.16288 5.5965 1.14251 5.76485 1.14251C5.94136 1.14251 6.09206 1.16288 6.21697 1.20361C6.34188 1.24434 6.44235 1.30137 6.51838 1.37468C6.59713 1.448 6.65551 1.53489 6.69353 1.63536C6.73154 1.73312 6.75055 1.84173 6.75055 1.96121V3.19944C6.75055 3.22931 6.73969 3.25375 6.71797 3.27276C6.69896 3.29177 6.67588 3.30127 6.64872 3.30127H6.17624C6.14637 3.30127 6.12193 3.29177 6.10292 3.27276C6.08392 3.25375 6.07441 3.22931 6.07441 3.19944V3.05688C6.03911 3.10848 5.99159 3.15599 5.93185 3.19944C5.87211 3.24289 5.80151 3.27683 5.72005 3.30127C5.6413 3.32842 5.54898 3.342 5.44308 3.342ZM5.63451 2.87766C5.71326 2.87766 5.78386 2.86137 5.84632 2.82879C5.91149 2.79349 5.96172 2.74054 5.99702 2.66994C6.03504 2.59662 6.05405 2.50565 6.05405 2.39704V2.34001L5.70783 2.40111C5.58021 2.42283 5.48652 2.45678 5.42679 2.50294C5.36976 2.54638 5.34125 2.59798 5.34125 2.65772C5.34125 2.70388 5.35483 2.74325 5.38198 2.77584C5.40913 2.80842 5.44444 2.83422 5.48788 2.85323C5.53133 2.86952 5.58021 2.87766 5.63451 2.87766ZM7.28938 3.30127C7.25951 3.30127 7.23507 3.29177 7.21606 3.27276C7.19705 3.25375 7.18755 3.22931 7.18755 3.19944V1.28507C7.18755 1.2552 7.19705 1.23077 7.21606 1.21176C7.23507 1.19275 7.25951 1.18325 7.28938 1.18325H7.77C7.79716 1.18325 7.82024 1.19275 7.83925 1.21176C7.86097 1.23077 7.87183 1.2552 7.87183 1.28507V3.19944C7.87183 3.22931 7.86097 3.25375 7.83925 3.27276C7.82024 3.29177 7.79716 3.30127 7.77 3.30127H7.28938ZM7.2853 0.877761C7.25543 0.877761 7.23099 0.868257 7.21199 0.849249C7.19298 0.830241 7.18347 0.805803 7.18347 0.775933V0.413425C7.18347 0.383556 7.19298 0.359117 7.21199 0.340109C7.23099 0.318386 7.25543 0.307524 7.2853 0.307524H7.77C7.79987 0.307524 7.82431 0.318386 7.84332 0.340109C7.86504 0.359117 7.87591 0.383556 7.87591 0.413425V0.775933C7.87591 0.805803 7.86504 0.830241 7.84332 0.849249C7.82431 0.868257 7.79987 0.877761 7.77 0.877761H7.2853ZM8.55551 3.30127C8.52564 3.30127 8.5012 3.29177 8.48219 3.27276C8.46318 3.25375 8.45368 3.22931 8.45368 3.19944V1.28507C8.45368 1.2552 8.46318 1.23077 8.48219 1.21176C8.5012 1.19275 8.52564 1.18325 8.55551 1.18325H9.02392C9.05379 1.18325 9.07823 1.19275 9.09723 1.21176C9.11624 1.23077 9.12575 1.2552 9.12575 1.28507V1.43985C9.19635 1.35567 9.28867 1.28507 9.40272 1.22805C9.51677 1.17103 9.65118 1.14251 9.80596 1.14251C9.96345 1.14251 10.1019 1.17781 10.2214 1.24842C10.3436 1.31902 10.4386 1.42356 10.5065 1.56205C10.5771 1.69782 10.6124 1.86481 10.6124 2.06304V3.19944C10.6124 3.22931 10.6016 3.25375 10.5799 3.27276C10.5608 3.29177 10.5378 3.30127 10.5106 3.30127H9.99739C9.97024 3.30127 9.9458 3.29177 9.92408 3.27276C9.90507 3.25375 9.89557 3.22931 9.89557 3.19944V2.08748C9.89557 1.95985 9.86434 1.8621 9.80188 1.79421C9.74215 1.72361 9.65254 1.68831 9.53306 1.68831C9.42173 1.68831 9.33212 1.72361 9.26423 1.79421C9.19906 1.8621 9.16648 1.95985 9.16648 2.08748V3.19944C9.16648 3.22931 9.15562 3.25375 9.13389 3.27276C9.11488 3.29177 9.0918 3.30127 9.06465 3.30127H8.55551ZM11.5992 3.30127C11.5584 3.30127 11.5286 3.29177 11.5096 3.27276C11.4906 3.25375 11.4756 3.22931 11.4648 3.19944L10.8782 1.31359C10.8728 1.30001 10.8701 1.28643 10.8701 1.27285C10.8701 1.24842 10.8796 1.22805 10.8986 1.21176C10.9176 1.19275 10.9393 1.18325 10.9638 1.18325H11.3833C11.4186 1.18325 11.4458 1.19275 11.4648 1.21176C11.4865 1.23077 11.5001 1.24977 11.5055 1.26878L11.8476 2.43369L12.2142 1.27285C12.2197 1.25385 12.2319 1.23484 12.2509 1.21583C12.2726 1.19411 12.3025 1.18325 12.3405 1.18325H12.6093C12.6473 1.18325 12.6758 1.19411 12.6948 1.21583C12.7166 1.23484 12.7301 1.25385 12.7356 1.27285L13.1022 2.43369L13.4443 1.26878C13.4497 1.24977 13.462 1.23077 13.481 1.21176C13.5027 1.19275 13.5312 1.18325 13.5665 1.18325H13.986C14.0105 1.18325 14.0308 1.19275 14.0471 1.21176C14.0661 1.22805 14.0756 1.24842 14.0756 1.27285C14.0756 1.28643 14.0743 1.30001 14.0716 1.31359L13.485 3.19944C13.4769 3.22931 13.462 3.25375 13.4402 3.27276C13.4212 3.29177 13.3914 3.30127 13.3506 3.30127H12.984C12.946 3.30127 12.9162 3.29177 12.8944 3.27276C12.8727 3.25375 12.8578 3.22931 12.8496 3.19944L12.4749 2.08341L12.1002 3.19944C12.092 3.22931 12.0771 3.25375 12.0554 3.27276C12.0336 3.29177 12.0038 3.30127 11.9658 3.30127H11.5992ZM14.9626 3.342C14.816 3.342 14.6843 3.31485 14.5675 3.26054C14.4534 3.20351 14.3625 3.12748 14.2946 3.03244C14.2267 2.9374 14.1928 2.83014 14.1928 2.71067C14.1928 2.51787 14.2715 2.36581 14.429 2.25448C14.5865 2.14043 14.7956 2.06304 15.0563 2.02231L15.5654 1.94492V1.8879C15.5654 1.79014 15.545 1.71547 15.5043 1.66387C15.4636 1.61228 15.3889 1.58648 15.2803 1.58648C15.2043 1.58648 15.1418 1.60142 15.0929 1.63129C15.0468 1.66116 15.0101 1.70189 14.983 1.75348C14.9585 1.78878 14.9246 1.80643 14.8811 1.80643H14.4249C14.3951 1.80643 14.372 1.79829 14.3557 1.78199C14.3394 1.76299 14.3326 1.74126 14.3353 1.71682C14.3353 1.66795 14.353 1.61228 14.3883 1.54983C14.4263 1.48466 14.4833 1.42084 14.5593 1.35839C14.6354 1.29594 14.7331 1.24434 14.8526 1.20361C14.9721 1.16288 15.116 1.14251 15.2844 1.14251C15.4609 1.14251 15.6116 1.16288 15.7365 1.20361C15.8614 1.24434 15.9619 1.30137 16.0379 1.37468C16.1166 1.448 16.175 1.53489 16.213 1.63536C16.2511 1.73312 16.2701 1.84173 16.2701 1.96121V3.19944C16.2701 3.22931 16.2592 3.25375 16.2375 3.27276C16.2185 3.29177 16.1954 3.30127 16.1682 3.30127H15.6958C15.6659 3.30127 15.6414 3.29177 15.6224 3.27276C15.6034 3.25375 15.5939 3.22931 15.5939 3.19944V3.05688C15.5586 3.10848 15.5111 3.15599 15.4514 3.19944C15.3916 3.24289 15.321 3.27683 15.2396 3.30127C15.1608 3.32842 15.0685 3.342 14.9626 3.342ZM15.154 2.87766C15.2328 2.87766 15.3034 2.86137 15.3658 2.82879C15.431 2.79349 15.4812 2.74054 15.5165 2.66994C15.5545 2.59662 15.5736 2.50565 15.5736 2.39704V2.34001L15.2273 2.40111C15.0997 2.42283 15.006 2.45678 14.9463 2.50294C14.8893 2.54638 14.8608 2.59798 14.8608 2.65772C14.8608 2.70388 14.8743 2.74325 14.9015 2.77584C14.9286 2.80842 14.9639 2.83422 15.0074 2.85323C15.0508 2.86952 15.0997 2.87766 15.154 2.87766ZM17.4009 3.30127C17.3602 3.30127 17.3303 3.29177 17.3113 3.27276C17.2923 3.25103 17.276 3.2266 17.2624 3.19944L16.4926 1.30951C16.4872 1.29865 16.4845 1.28643 16.4845 1.27285C16.4845 1.24842 16.4926 1.22805 16.5089 1.21176C16.5279 1.19275 16.551 1.18325 16.5782 1.18325H17.0384C17.0737 1.18325 17.1009 1.19275 17.1199 1.21176C17.1389 1.23077 17.1511 1.24977 17.1565 1.26878L17.6168 2.51923L18.0811 1.26878C18.0866 1.24977 18.0988 1.23077 18.1178 1.21176C18.1368 1.19275 18.164 1.18325 18.1993 1.18325H18.6595C18.684 1.18325 18.7057 1.19275 18.7247 1.21176C18.7437 1.22805 18.7532 1.24842 18.7532 1.27285C18.7532 1.28643 18.7505 1.29865 18.7451 1.30951L17.9752 3.19944C17.9644 3.2266 17.9481 3.25103 17.9264 3.27276C17.9073 3.29177 17.8761 3.30127 17.8327 3.30127H17.4009ZM19.9452 3.342C19.6247 3.342 19.3695 3.25511 19.1794 3.08132C18.9893 2.90753 18.8902 2.64957 18.8821 2.30743C18.8821 2.28842 18.8821 2.26398 18.8821 2.23411C18.8821 2.20424 18.8821 2.18116 18.8821 2.16487C18.8902 1.95035 18.9377 1.76706 19.0246 1.615C19.1142 1.46022 19.2364 1.34346 19.3912 1.26471C19.5487 1.18325 19.732 1.14251 19.9411 1.14251C20.18 1.14251 20.3769 1.19003 20.5317 1.28507C20.6892 1.38011 20.8073 1.5091 20.886 1.67202C20.9648 1.83495 21.0042 2.02095 21.0042 2.23004V2.32779C21.0042 2.35766 20.9933 2.3821 20.9716 2.40111C20.9526 2.42012 20.9295 2.42962 20.9023 2.42962H19.5989C19.5989 2.43234 19.5989 2.43641 19.5989 2.44184C19.5989 2.44727 19.5989 2.4527 19.5989 2.45813C19.6017 2.53688 19.6152 2.60884 19.6397 2.67401C19.6641 2.73918 19.7021 2.79077 19.7537 2.82879C19.8053 2.8668 19.8678 2.88581 19.9411 2.88581C19.9954 2.88581 20.0402 2.87766 20.0755 2.86137C20.1135 2.84236 20.1447 2.822 20.1692 2.80028C20.1936 2.77584 20.2126 2.75547 20.2262 2.73918C20.2506 2.71202 20.2696 2.69573 20.2832 2.6903C20.2995 2.68215 20.324 2.67808 20.3565 2.67808H20.8616C20.8888 2.67808 20.9105 2.68623 20.9268 2.70252C20.9458 2.7161 20.9539 2.73646 20.9512 2.76362C20.9485 2.80978 20.9254 2.86545 20.882 2.93062C20.8385 2.99579 20.7747 3.06096 20.6905 3.12613C20.6091 3.18858 20.5059 3.24017 20.381 3.2809C20.2561 3.32164 20.1108 3.342 19.9452 3.342ZM19.5989 2.02638H20.2873V2.01824C20.2873 1.93134 20.2737 1.85531 20.2466 1.79014C20.2221 1.72497 20.1828 1.67474 20.1284 1.63944C20.0769 1.60413 20.0144 1.58648 19.9411 1.58648C19.8678 1.58648 19.8053 1.60413 19.7537 1.63944C19.7048 1.67474 19.6668 1.72497 19.6397 1.79014C19.6125 1.85531 19.5989 1.93134 19.5989 2.01824V2.02638ZM21.4449 3.30127C21.415 3.30127 21.3905 3.29177 21.3715 3.27276C21.3525 3.25375 21.343 3.22931 21.343 3.19944V2.68215C21.343 2.655 21.3525 2.63192 21.3715 2.61291C21.3905 2.59119 21.415 2.58033 21.4449 2.58033H21.9581C21.9879 2.58033 22.0124 2.59119 22.0314 2.61291C22.0531 2.63192 22.064 2.655 22.064 2.68215V3.19944C22.064 3.22931 22.0531 3.25375 22.0314 3.27276C22.0124 3.29177 21.9879 3.30127 21.9581 3.30127H21.4449ZM22.6001 3.30127C22.5702 3.30127 22.5458 3.29177 22.5268 3.27276C22.5078 3.25375 22.4983 3.22931 22.4983 3.19944V1.28507C22.4983 1.2552 22.5078 1.23077 22.5268 1.21176C22.5458 1.19275 22.5702 1.18325 22.6001 1.18325H23.0807C23.1079 1.18325 23.131 1.19275 23.15 1.21176C23.1717 1.23077 23.1826 1.2552 23.1826 1.28507V3.19944C23.1826 3.22931 23.1717 3.25375 23.15 3.27276C23.131 3.29177 23.1079 3.30127 23.0807 3.30127H22.6001ZM22.596 0.877761C22.5662 0.877761 22.5417 0.868257 22.5227 0.849249C22.5037 0.830241 22.4942 0.805803 22.4942 0.775933V0.413425C22.4942 0.383556 22.5037 0.359117 22.5227 0.340109C22.5417 0.318386 22.5662 0.307524 22.596 0.307524H23.0807C23.1106 0.307524 23.135 0.318386 23.154 0.340109C23.1758 0.359117 23.1866 0.383556 23.1866 0.413425V0.775933C23.1866 0.805803 23.1758 0.830241 23.154 0.849249C23.135 0.868257 23.1106 0.877761 23.0807 0.877761H22.596ZM24.659 3.342C24.4309 3.342 24.2381 3.30534 24.0806 3.23203C23.9258 3.15871 23.8063 3.05417 23.7222 2.9184C23.6407 2.77991 23.5945 2.61563 23.5837 2.42555C23.581 2.37124 23.5796 2.31014 23.5796 2.24226C23.5796 2.17166 23.581 2.11056 23.5837 2.05897C23.5945 1.86617 23.6434 1.70189 23.7303 1.56612C23.8172 1.43035 23.938 1.3258 24.0928 1.25249C24.2503 1.17917 24.439 1.14251 24.659 1.14251C24.8817 1.14251 25.0704 1.17917 25.2252 1.25249C25.3826 1.3258 25.5048 1.43035 25.5917 1.56612C25.6786 1.70189 25.7275 1.86617 25.7384 2.05897C25.7411 2.11056 25.7424 2.17166 25.7424 2.24226C25.7424 2.31014 25.7411 2.37124 25.7384 2.42555C25.7275 2.61563 25.68 2.77991 25.5958 2.9184C25.5143 3.05417 25.3949 3.15871 25.2374 3.23203C25.0826 3.30534 24.8898 3.342 24.659 3.342ZM24.659 2.84508C24.7812 2.84508 24.8694 2.80842 24.9237 2.73511C24.9808 2.66179 25.0134 2.55181 25.0215 2.40518C25.0242 2.36445 25.0256 2.31014 25.0256 2.24226C25.0256 2.17437 25.0242 2.12006 25.0215 2.07933C25.0134 1.93542 24.9808 1.8268 24.9237 1.75348C24.8694 1.67745 24.7812 1.63944 24.659 1.63944C24.5395 1.63944 24.4513 1.67745 24.3942 1.75348C24.3372 1.8268 24.306 1.93542 24.3006 2.07933C24.2978 2.12006 24.2965 2.17437 24.2965 2.24226C24.2965 2.31014 24.2978 2.36445 24.3006 2.40518C24.306 2.55181 24.3372 2.66179 24.3942 2.73511C24.4513 2.80842 24.5395 2.84508 24.659 2.84508Z" fill="white"/>
</svg>
