<svg width="23" height="3" viewBox="0 0 23 3" fill="none" xmlns="http://www.w3.org/2000/svg">
<path d="M0.843876 2.78223C0.818273 2.78223 0.797326 2.77408 0.781033 2.75779C0.764741 2.7415 0.756594 2.72055 0.756594 2.69495V0.425634C0.756594 0.400031 0.764741 0.379084 0.781033 0.362791C0.797326 0.346499 0.818273 0.338353 0.843876 0.338353H1.90871C2.10887 0.338353 2.27296 0.366283 2.40097 0.422142C2.52898 0.478003 2.62325 0.558301 2.68376 0.663039C2.74661 0.765449 2.77803 0.887642 2.77803 1.02962C2.77803 1.11341 2.76173 1.18789 2.72915 1.25306C2.69889 1.3159 2.66049 1.36827 2.61394 1.41017C2.56972 1.45206 2.52782 1.48232 2.48825 1.50094C2.5767 1.54283 2.65467 1.61149 2.72217 1.70692C2.79199 1.80235 2.8269 1.91407 2.8269 2.04208C2.8269 2.1957 2.79199 2.32836 2.72217 2.44008C2.65467 2.54948 2.55459 2.63443 2.42192 2.69495C2.29158 2.75313 2.13098 2.78223 1.94013 2.78223H0.843876ZM1.38153 2.32836H1.8703C1.97039 2.32836 2.04603 2.29927 2.09723 2.24108C2.14844 2.1829 2.17404 2.11656 2.17404 2.04208C2.17404 1.96062 2.14728 1.89196 2.09374 1.8361C2.04254 1.78024 1.96806 1.75231 1.8703 1.75231H1.38153V2.32836ZM1.38153 1.30892H1.83888C1.93431 1.30892 2.0053 1.28448 2.05185 1.2356C2.10073 1.18673 2.12516 1.12388 2.12516 1.04708C2.12516 0.972596 2.10073 0.912081 2.05185 0.865531C2.0053 0.816654 1.93431 0.792215 1.83888 0.792215H1.38153V1.30892ZM3.24427 2.78223C3.21867 2.78223 3.19772 2.77408 3.18143 2.75779C3.16513 2.7415 3.15699 2.72055 3.15699 2.69495V1.05406C3.15699 1.03078 3.16513 1.011 3.18143 0.994707C3.19772 0.976087 3.21867 0.966777 3.24427 0.966777H3.64576C3.67137 0.966777 3.69231 0.976087 3.70861 0.994707C3.7249 1.011 3.73304 1.03078 3.73304 1.05406V1.19371C3.79589 1.12156 3.87037 1.0657 3.95648 1.02613C4.04493 0.986561 4.14385 0.966777 4.25324 0.966777H4.40686C4.43013 0.966777 4.44991 0.974924 4.46621 0.991216C4.48483 1.00751 4.49414 1.02846 4.49414 1.05406V1.41366C4.49414 1.43693 4.48483 1.45788 4.46621 1.4765C4.44991 1.49279 4.43013 1.50094 4.40686 1.50094H4.0682C3.97278 1.50094 3.8983 1.5277 3.84476 1.58124C3.79356 1.63244 3.76796 1.70576 3.76796 1.80119V2.69495C3.76796 2.72055 3.75865 2.7415 3.74003 2.75779C3.72373 2.77408 3.70279 2.78223 3.67718 2.78223H3.24427ZM5.23692 2.81714C5.11124 2.81714 4.99836 2.79386 4.89827 2.74731C4.80052 2.69844 4.72255 2.63327 4.66436 2.5518C4.60617 2.47034 4.57708 2.37841 4.57708 2.276C4.57708 2.11074 4.64458 1.9804 4.77957 1.88498C4.91457 1.78722 5.09378 1.72089 5.31722 1.68597L5.75363 1.61964V1.57076C5.75363 1.48697 5.73617 1.42297 5.70126 1.37874C5.66635 1.33452 5.60234 1.31241 5.50924 1.31241C5.44407 1.31241 5.39054 1.32521 5.34864 1.35081C5.30908 1.37642 5.27766 1.41133 5.25438 1.45555C5.23343 1.48581 5.20434 1.50094 5.1671 1.50094H4.77608C4.75048 1.50094 4.73069 1.49396 4.71673 1.47999C4.70276 1.4637 4.69694 1.44508 4.69927 1.42413C4.69927 1.38224 4.7144 1.33452 4.74466 1.28099C4.77724 1.22513 4.82612 1.17043 4.89129 1.1169C4.95646 1.06337 5.04025 1.01915 5.14266 0.984233C5.24507 0.949321 5.36843 0.931865 5.51273 0.931865C5.66402 0.931865 5.7932 0.949321 5.90026 0.984233C6.00733 1.01915 6.09344 1.06802 6.15861 1.13087C6.22611 1.19371 6.27615 1.26819 6.30874 1.35431C6.34132 1.4381 6.35761 1.5312 6.35761 1.63361V2.69495C6.35761 2.72055 6.3483 2.7415 6.32968 2.75779C6.31339 2.77408 6.29361 2.78223 6.27033 2.78223H5.86535C5.83975 2.78223 5.8188 2.77408 5.80251 2.75779C5.78621 2.7415 5.77807 2.72055 5.77807 2.69495V2.57275C5.74781 2.61697 5.70708 2.65771 5.65587 2.69495C5.60467 2.73219 5.54415 2.76128 5.47433 2.78223C5.40683 2.8055 5.3277 2.81714 5.23692 2.81714ZM5.40101 2.41914C5.46851 2.41914 5.52903 2.40517 5.58256 2.37724C5.63842 2.34698 5.68148 2.3016 5.71173 2.24108C5.74432 2.17824 5.76061 2.10027 5.76061 2.00717V1.95829L5.46386 2.01066C5.35446 2.02928 5.27416 2.05837 5.22296 2.09794C5.17408 2.13518 5.14964 2.1794 5.14964 2.23061C5.14964 2.27018 5.16128 2.30393 5.18456 2.33186C5.20783 2.35979 5.23809 2.3819 5.27533 2.39819C5.31257 2.41215 5.35446 2.41914 5.40101 2.41914ZM6.81947 2.78223C6.79386 2.78223 6.77292 2.77408 6.75662 2.75779C6.74033 2.7415 6.73218 2.72055 6.73218 2.69495V1.05406C6.73218 1.02846 6.74033 1.00751 6.75662 0.991216C6.77292 0.974924 6.79386 0.966777 6.81947 0.966777H7.23143C7.25471 0.966777 7.27449 0.974924 7.29078 0.991216C7.3094 1.00751 7.31871 1.02846 7.31871 1.05406V2.69495C7.31871 2.72055 7.3094 2.7415 7.29078 2.75779C7.27449 2.77408 7.25471 2.78223 7.23143 2.78223H6.81947ZM6.81597 0.704934C6.79037 0.704934 6.76942 0.696787 6.75313 0.680495C6.73684 0.664202 6.72869 0.643255 6.72869 0.617653V0.306931C6.72869 0.281329 6.73684 0.260381 6.75313 0.244089C6.76942 0.225469 6.79037 0.216159 6.81597 0.216159H7.23143C7.25704 0.216159 7.27798 0.225469 7.29428 0.244089C7.3129 0.260381 7.32221 0.281329 7.32221 0.306931V0.617653C7.32221 0.643255 7.3129 0.664202 7.29428 0.680495C7.27798 0.696787 7.25704 0.704934 7.23143 0.704934H6.81597ZM7.90472 2.78223C7.87912 2.78223 7.85817 2.77408 7.84188 2.75779C7.82559 2.7415 7.81744 2.72055 7.81744 2.69495V1.05406C7.81744 1.02846 7.82559 1.00751 7.84188 0.991216C7.85817 0.974924 7.87912 0.966777 7.90472 0.966777H8.30622C8.33182 0.966777 8.35277 0.974924 8.36906 0.991216C8.38535 1.00751 8.3935 1.02846 8.3935 1.05406V1.18673C8.45401 1.11457 8.53315 1.05406 8.6309 1.00518C8.72866 0.956304 8.84387 0.931865 8.97654 0.931865C9.11153 0.931865 9.23023 0.962122 9.33264 1.02264C9.43738 1.08315 9.51884 1.17276 9.57703 1.29146C9.63755 1.40784 9.6678 1.55098 9.6678 1.72089V2.69495C9.6678 2.72055 9.65849 2.7415 9.63987 2.75779C9.62358 2.77408 9.6038 2.78223 9.58052 2.78223H9.14062C9.11735 2.78223 9.0964 2.77408 9.07778 2.75779C9.06149 2.7415 9.05334 2.72055 9.05334 2.69495V1.74183C9.05334 1.63244 9.02658 1.54865 8.97304 1.49046C8.92184 1.42995 8.84503 1.39969 8.74262 1.39969C8.64719 1.39969 8.57039 1.42995 8.5122 1.49046C8.45634 1.54865 8.42841 1.63244 8.42841 1.74183V2.69495C8.42841 2.72055 8.4191 2.7415 8.40048 2.75779C8.38419 2.77408 8.3644 2.78223 8.34113 2.78223H7.90472ZM10.5136 2.78223C10.4787 2.78223 10.4531 2.77408 10.4368 2.75779C10.4205 2.7415 10.4077 2.72055 10.3984 2.69495L9.89563 1.0785C9.89098 1.06686 9.88865 1.05522 9.88865 1.04358C9.88865 1.02264 9.8968 1.00518 9.91309 0.991216C9.92938 0.974924 9.948 0.966777 9.96895 0.966777H10.3285C10.3588 0.966777 10.3821 0.974924 10.3984 0.991216C10.417 1.00751 10.4286 1.0238 10.4333 1.04009L10.7265 2.03859L11.0408 1.04358C11.0454 1.02729 11.0559 1.011 11.0722 0.994707C11.0908 0.976087 11.1164 0.966777 11.149 0.966777H11.3794C11.412 0.966777 11.4364 0.976087 11.4527 0.994707C11.4713 1.011 11.483 1.02729 11.4876 1.04358L11.8019 2.03859L12.0951 1.04009C12.0998 1.0238 12.1102 1.00751 12.1265 0.991216C12.1452 0.974924 12.1696 0.966777 12.1999 0.966777H12.5595C12.5804 0.966777 12.5979 0.974924 12.6118 0.991216C12.6281 1.00518 12.6363 1.02264 12.6363 1.04358C12.6363 1.05522 12.6351 1.06686 12.6328 1.0785L12.13 2.69495C12.123 2.72055 12.1102 2.7415 12.0916 2.75779C12.0753 2.77408 12.0497 2.78223 12.0148 2.78223H11.7006C11.668 2.78223 11.6424 2.77408 11.6238 2.75779C11.6052 2.7415 11.5924 2.72055 11.5854 2.69495L11.2642 1.73834L10.943 2.69495C10.936 2.72055 10.9232 2.7415 10.9046 2.75779C10.886 2.77408 10.8604 2.78223 10.8278 2.78223H10.5136ZM13.3965 2.81714C13.2708 2.81714 13.1579 2.79386 13.0579 2.74731C12.9601 2.69844 12.8821 2.63327 12.8239 2.5518C12.7658 2.47034 12.7367 2.37841 12.7367 2.276C12.7367 2.11074 12.8042 1.9804 12.9392 1.88498C13.0741 1.78722 13.2534 1.72089 13.4768 1.68597L13.9132 1.61964V1.57076C13.9132 1.48697 13.8958 1.42297 13.8608 1.37874C13.8259 1.33452 13.7619 1.31241 13.6688 1.31241C13.6037 1.31241 13.5501 1.32521 13.5082 1.35081C13.4687 1.37642 13.4372 1.41133 13.414 1.45555C13.393 1.48581 13.3639 1.50094 13.3267 1.50094H12.9357C12.9101 1.50094 12.8903 1.49396 12.8763 1.47999C12.8623 1.4637 12.8565 1.44508 12.8589 1.42413C12.8589 1.38224 12.874 1.33452 12.9042 1.28099C12.9368 1.22513 12.9857 1.17043 13.0509 1.1169C13.116 1.06337 13.1998 1.01915 13.3022 0.984233C13.4047 0.949321 13.528 0.931865 13.6723 0.931865C13.8236 0.931865 13.9528 0.949321 14.0598 0.984233C14.1669 1.01915 14.253 1.06802 14.3182 1.13087C14.3857 1.19371 14.4357 1.26819 14.4683 1.35431C14.5009 1.4381 14.5172 1.5312 14.5172 1.63361V2.69495C14.5172 2.72055 14.5079 2.7415 14.4893 2.75779C14.473 2.77408 14.4532 2.78223 14.4299 2.78223H14.0249C13.9993 2.78223 13.9784 2.77408 13.9621 2.75779C13.9458 2.7415 13.9376 2.72055 13.9376 2.69495V2.57275C13.9074 2.61697 13.8667 2.65771 13.8155 2.69495C13.7642 2.73219 13.7037 2.76128 13.6339 2.78223C13.5664 2.8055 13.4873 2.81714 13.3965 2.81714ZM13.5606 2.41914C13.6281 2.41914 13.6886 2.40517 13.7421 2.37724C13.798 2.34698 13.8411 2.3016 13.8713 2.24108C13.9039 2.17824 13.9202 2.10027 13.9202 2.00717V1.95829L13.6234 2.01066C13.514 2.02928 13.4337 2.05837 13.3825 2.09794C13.3337 2.13518 13.3092 2.1794 13.3092 2.23061C13.3092 2.27018 13.3209 2.30393 13.3441 2.33186C13.3674 2.35979 13.3977 2.3819 13.4349 2.39819C13.4721 2.41215 13.514 2.41914 13.5606 2.41914ZM15.4865 2.78223C15.4516 2.78223 15.426 2.77408 15.4097 2.75779C15.3934 2.73917 15.3794 2.71822 15.3678 2.69495L14.708 1.07501C14.7033 1.0657 14.701 1.05522 14.701 1.04358C14.701 1.02264 14.708 1.00518 14.7219 0.991216C14.7382 0.974924 14.758 0.966777 14.7813 0.966777H15.1758C15.206 0.966777 15.2293 0.974924 15.2456 0.991216C15.2619 1.00751 15.2724 1.0238 15.277 1.04009L15.6715 2.11191L16.0695 1.04009C16.0742 1.0238 16.0847 1.00751 16.101 0.991216C16.1173 0.974924 16.1405 0.966777 16.1708 0.966777H16.5653C16.5862 0.966777 16.6049 0.974924 16.6212 0.991216C16.6375 1.00518 16.6456 1.02264 16.6456 1.04358C16.6456 1.05522 16.6433 1.0657 16.6386 1.07501L15.9788 2.69495C15.9695 2.71822 15.9555 2.73917 15.9369 2.75779C15.9206 2.77408 15.8938 2.78223 15.8566 2.78223H15.4865ZM17.6673 2.81714C17.3926 2.81714 17.1738 2.74266 17.0109 2.5937C16.848 2.44474 16.763 2.22363 16.7561 1.93036C16.7561 1.91407 16.7561 1.89312 16.7561 1.86752C16.7561 1.84192 16.7561 1.82213 16.7561 1.80817C16.763 1.6243 16.8038 1.46719 16.8783 1.33685C16.9551 1.20418 17.0598 1.1041 17.1925 1.0366C17.3275 0.966777 17.4846 0.931865 17.6638 0.931865C17.8686 0.931865 18.0373 0.972596 18.17 1.05406C18.305 1.13552 18.4063 1.24608 18.4738 1.38573C18.5413 1.52538 18.575 1.68481 18.575 1.86403V1.94782C18.575 1.97342 18.5657 1.99437 18.5471 2.01066C18.5308 2.02695 18.511 2.0351 18.4877 2.0351H17.3705C17.3705 2.03743 17.3705 2.04092 17.3705 2.04557C17.3705 2.05023 17.3705 2.05488 17.3705 2.05954C17.3728 2.12704 17.3845 2.18871 17.4054 2.24457C17.4264 2.30043 17.459 2.34466 17.5032 2.37724C17.5474 2.40983 17.6009 2.42612 17.6638 2.42612C17.7103 2.42612 17.7487 2.41914 17.779 2.40517C17.8116 2.38888 17.8383 2.37142 17.8593 2.3528C17.8802 2.33186 17.8965 2.3144 17.9082 2.30043C17.9291 2.27716 17.9454 2.26319 17.9571 2.25854C17.971 2.25156 17.992 2.24807 18.0199 2.24807H18.4528C18.4761 2.24807 18.4947 2.25505 18.5087 2.26901C18.525 2.28065 18.5319 2.29811 18.5296 2.32138C18.5273 2.36095 18.5075 2.40866 18.4703 2.46452C18.433 2.52038 18.3783 2.57624 18.3062 2.6321C18.2364 2.68564 18.1479 2.72986 18.0408 2.76477C17.9338 2.79968 17.8093 2.81714 17.6673 2.81714ZM17.3705 1.68947H17.9605V1.68248C17.9605 1.608 17.9489 1.54283 17.9256 1.48697C17.9047 1.43111 17.8709 1.38805 17.8244 1.3578C17.7802 1.32754 17.7266 1.31241 17.6638 1.31241C17.6009 1.31241 17.5474 1.32754 17.5032 1.3578C17.4613 1.38805 17.4287 1.43111 17.4054 1.48697C17.3822 1.54283 17.3705 1.608 17.3705 1.68248V1.68947ZM18.9527 2.78223C18.9271 2.78223 18.9062 2.77408 18.8899 2.75779C18.8736 2.7415 18.8655 2.72055 18.8655 2.69495V2.25156C18.8655 2.22828 18.8736 2.2085 18.8899 2.19221C18.9062 2.17359 18.9271 2.16428 18.9527 2.16428H19.3926C19.4182 2.16428 19.4392 2.17359 19.4555 2.19221C19.4741 2.2085 19.4834 2.22828 19.4834 2.25156V2.69495C19.4834 2.72055 19.4741 2.7415 19.4555 2.75779C19.4392 2.77408 19.4182 2.78223 19.3926 2.78223H18.9527ZM19.9429 2.78223C19.9173 2.78223 19.8964 2.77408 19.8801 2.75779C19.8638 2.7415 19.8557 2.72055 19.8557 2.69495V1.05406C19.8557 1.02846 19.8638 1.00751 19.8801 0.991216C19.8964 0.974924 19.9173 0.966777 19.9429 0.966777H20.3549C20.3782 0.966777 20.398 0.974924 20.4143 0.991216C20.4329 1.00751 20.4422 1.02846 20.4422 1.05406V2.69495C20.4422 2.72055 20.4329 2.7415 20.4143 2.75779C20.398 2.77408 20.3782 2.78223 20.3549 2.78223H19.9429ZM19.9394 0.704934C19.9138 0.704934 19.8929 0.696787 19.8766 0.680495C19.8603 0.664202 19.8522 0.643255 19.8522 0.617653V0.306931C19.8522 0.281329 19.8603 0.260381 19.8766 0.244089C19.8929 0.225469 19.9138 0.216159 19.9394 0.216159H20.3549C20.3805 0.216159 20.4015 0.225469 20.4177 0.244089C20.4364 0.260381 20.4457 0.281329 20.4457 0.306931V0.617653C20.4457 0.643255 20.4364 0.664202 20.4177 0.680495C20.4015 0.696787 20.3805 0.704934 20.3549 0.704934H19.9394ZM21.7077 2.81714C21.5122 2.81714 21.3469 2.78572 21.2119 2.72288C21.0793 2.66003 20.9769 2.57042 20.9047 2.45405C20.8349 2.33535 20.7953 2.19453 20.786 2.03161C20.7837 1.98506 20.7825 1.93269 20.7825 1.8745C20.7825 1.81399 20.7837 1.76162 20.786 1.7174C20.7953 1.55214 20.8372 1.41133 20.9117 1.29495C20.9862 1.17858 21.0898 1.08897 21.2224 1.02613C21.3574 0.963286 21.5192 0.931865 21.7077 0.931865C21.8986 0.931865 22.0603 0.963286 22.193 1.02613C22.328 1.08897 22.4327 1.17858 22.5072 1.29495C22.5817 1.41133 22.6236 1.55214 22.6329 1.7174C22.6352 1.76162 22.6364 1.81399 22.6364 1.8745C22.6364 1.93269 22.6352 1.98506 22.6329 2.03161C22.6236 2.19453 22.5828 2.33535 22.5107 2.45405C22.4409 2.57042 22.3385 2.66003 22.2035 2.72288C22.0708 2.78572 21.9055 2.81714 21.7077 2.81714ZM21.7077 2.39121C21.8124 2.39121 21.8881 2.35979 21.9346 2.29694C21.9835 2.2341 22.0114 2.13984 22.0184 2.01415C22.0208 1.97924 22.0219 1.93269 22.0219 1.8745C22.0219 1.81631 22.0208 1.76976 22.0184 1.73485C22.0114 1.61149 21.9835 1.51839 21.9346 1.45555C21.8881 1.39038 21.8124 1.3578 21.7077 1.3578C21.6053 1.3578 21.5297 1.39038 21.4808 1.45555C21.4319 1.51839 21.4051 1.61149 21.4005 1.73485C21.3981 1.76976 21.397 1.81631 21.397 1.8745C21.397 1.93269 21.3981 1.97924 21.4005 2.01415C21.4051 2.13984 21.4319 2.2341 21.4808 2.29694C21.5297 2.35979 21.6053 2.39121 21.7077 2.39121Z" fill="#161C2D"/>
</svg>
