<svg width="19" height="3" viewBox="0 0 19 3" fill="none" xmlns="http://www.w3.org/2000/svg">
<path d="M1.7953 0.223913L2.23119 1.06203L3.20558 1.19646C3.2308 1.20001 3.25172 1.21676 3.25958 1.23971C3.26744 1.26266 3.26087 1.28783 3.24264 1.30469L2.5377 1.95693L2.70414 2.87809C2.70851 2.90185 2.69823 2.92589 2.67762 2.94009C2.65701 2.95428 2.62966 2.95616 2.6071 2.94493L1.73553 2.51011L0.863954 2.94506C0.841407 2.95633 0.814044 2.95448 0.793423 2.94029C0.772802 2.9261 0.76252 2.90204 0.76692 2.87828L0.933358 1.95693L0.228221 1.30469C0.209984 1.28783 0.203419 1.26266 0.211276 1.23971C0.219133 1.21676 0.240056 1.20001 0.265281 1.19646L1.23967 1.06203L1.67575 0.223913C1.68685 0.202241 1.71007 0.188477 1.73553 0.188477C1.76099 0.188477 1.78421 0.202241 1.7953 0.223913Z" fill="#FCAD38"/>
<path d="M5.50194 0.223913L5.91707 1.06203L6.84506 1.19646C6.86909 1.20001 6.88901 1.21676 6.8965 1.23971C6.90398 1.26266 6.89773 1.28783 6.88036 1.30469L6.20899 1.95693L6.3675 2.87809C6.37167 2.90185 6.36187 2.92589 6.34225 2.94009C6.32262 2.95428 6.29657 2.95616 6.27509 2.94493L5.44502 2.51011L4.61494 2.94506C4.59347 2.95633 4.56741 2.95448 4.54777 2.94029C4.52813 2.9261 4.51834 2.90204 4.52253 2.87828L4.68104 1.95693L4.00949 1.30469C3.99212 1.28783 3.98586 1.26266 3.99335 1.23971C4.00083 1.21676 4.02076 1.20001 4.04478 1.19646L4.97277 1.06203L5.38809 0.223913C5.39866 0.202241 5.42077 0.188477 5.44502 0.188477C5.46926 0.188477 5.49138 0.202241 5.50194 0.223913Z" fill="#FCAD38"/>
<path d="M9.21425 0.223913L9.65014 1.06203L10.6245 1.19646C10.6497 1.20001 10.6707 1.21676 10.6785 1.23971C10.6864 1.26266 10.6798 1.28783 10.6616 1.30469L9.95664 1.95693L10.1231 2.87809C10.1275 2.90185 10.1172 2.92589 10.0966 2.94009C10.076 2.95428 10.0486 2.95616 10.026 2.94493L9.15447 2.51011L8.2829 2.94506C8.26035 2.95633 8.23299 2.95448 8.21237 2.94029C8.19175 2.9261 8.18146 2.90204 8.18587 2.87828L8.3523 1.95693L7.64717 1.30469C7.62893 1.28783 7.62236 1.26266 7.63022 1.23971C7.63808 1.21676 7.659 1.20001 7.68423 1.19646L8.65861 1.06203L9.0947 0.223913C9.1058 0.202241 9.12902 0.188477 9.15447 0.188477C9.17993 0.188477 9.20315 0.202241 9.21425 0.223913Z" fill="#FCAD38"/>
<path d="M12.9209 0.223913L13.336 1.06203L14.264 1.19646C14.288 1.20001 14.308 1.21676 14.3154 1.23971C14.3229 1.26266 14.3167 1.28783 14.2993 1.30469L13.6279 1.95693L13.7864 2.87809C13.7906 2.90185 13.7808 2.92589 13.7612 2.94009C13.7416 2.95428 13.7155 2.95616 13.694 2.94493L12.864 2.51011L12.0339 2.94506C12.0124 2.95633 11.9864 2.95448 11.9667 2.94029C11.9471 2.9261 11.9373 2.90204 11.9415 2.87828L12.1 1.95693L11.4284 1.30469C11.4111 1.28783 11.4048 1.26266 11.4123 1.23971C11.4198 1.21676 11.4397 1.20001 11.4637 1.19646L12.3917 1.06203L12.807 0.223913C12.8176 0.202241 12.8397 0.188477 12.864 0.188477C12.8882 0.188477 12.9103 0.202241 12.9209 0.223913Z" fill="#FCAD38"/>
<path d="M16.6332 0.223913L17.0691 1.06203L18.0435 1.19646C18.0687 1.20001 18.0896 1.21676 18.0975 1.23971C18.1053 1.26266 18.0988 1.28783 18.0805 1.30469L17.3756 1.95693L17.542 2.87809C17.5464 2.90185 17.5361 2.92589 17.5155 2.94009C17.4949 2.95428 17.4676 2.95616 17.445 2.94493L16.5734 2.51011L15.7018 2.94506C15.6793 2.95633 15.6519 2.95448 15.6313 2.94029C15.6107 2.9261 15.6004 2.90204 15.6048 2.87828L15.7712 1.95693L15.0661 1.30469C15.0479 1.28783 15.0413 1.26266 15.0492 1.23971C15.057 1.21676 15.0779 1.20001 15.1032 1.19646L16.0776 1.06203L16.5136 0.223913C16.5247 0.202241 16.548 0.188477 16.5734 0.188477C16.5989 0.188477 16.6221 0.202241 16.6332 0.223913Z" fill="#FCAD38"/>
</svg>
