<svg width="233" height="93" viewBox="0 0 233 93" fill="none" xmlns="http://www.w3.org/2000/svg">
<g clip-path="url(#clip0_106_2968)">
<rect width="232.75" height="92.3726" fill="#473BF0"/>
<mask id="mask0_106_2968" style="mask-type:luminance" maskUnits="userSpaceOnUse" x="0" y="0" width="233" height="93">
<rect width="232.75" height="92.3726" fill="white"/>
</mask>
<g mask="url(#mask0_106_2968)">
<g opacity="0.0636858">
<mask id="mask1_106_2968" style="mask-type:luminance" maskUnits="userSpaceOnUse" x="22" y="-43" width="185" height="184">
<path fill-rule="evenodd" clip-rule="evenodd" d="M22.8145 -42.5244H206.109V140.292H22.8145V-42.5244Z" fill="white"/>
</mask>
<g mask="url(#mask1_106_2968)">
<path fill-rule="evenodd" clip-rule="evenodd" d="M205.774 33.4988C205.832 32.195 205.225 30.971 204.153 30.2255L101.016 -41.5133C100.185 -42.0918 99.1773 -42.3126 98.179 -42.1356C97.1814 -41.958 96.3122 -41.4039 95.7331 -40.5744L23.8269 62.2725C23.4145 62.8624 23.1798 63.553 23.1485 64.2684C23.0916 65.5725 23.6979 66.7959 24.7697 67.5423L127.906 139.281C128.738 139.859 129.745 140.08 130.744 139.903C131.741 139.725 132.611 139.172 133.19 138.342L205.096 35.4954C205.509 34.9052 205.743 34.2144 205.774 33.4988ZM22.8185 64.2542C22.8528 63.4759 23.1081 62.7259 23.5566 62.0844L95.4619 -40.7627C96.0921 -41.6641 97.0366 -42.2666 98.1215 -42.4596C99.2064 -42.6522 100.301 -42.4121 101.205 -41.7835L204.342 29.9556C205.508 30.7664 206.166 32.0963 206.105 33.5137C206.07 34.2917 205.815 35.0419 205.367 35.6838L133.461 138.53C132.831 139.432 131.887 140.034 130.802 140.227C129.717 140.42 128.622 140.179 127.718 139.551L24.5814 67.8117C23.4159 67.0015 22.7565 65.6713 22.8185 64.2542Z" fill="#DADADA"/>
</g>
<path fill-rule="evenodd" clip-rule="evenodd" d="M200.983 32.4618C201.039 31.2109 200.462 30.0294 199.443 29.3013L99.8062 -41.8969C99.0042 -42.4706 98.0259 -42.6981 97.052 -42.538C96.078 -42.3775 95.2254 -41.8484 94.6503 -41.0484L23.286 58.3079C22.8674 58.8914 22.6294 59.5765 22.5982 60.2898C22.5436 61.5409 23.1193 62.7226 24.1388 63.4499L123.776 134.649C125.433 135.832 127.745 135.452 128.931 133.8L200.295 34.4438C200.715 33.8606 200.952 33.1748 200.983 32.4618ZM22.2686 60.275C22.3022 59.4983 22.5615 58.7516 23.0179 58.1162L94.3823 -41.2398C95.0083 -42.1116 95.9374 -42.6876 96.998 -42.8625C98.0588 -43.037 99.1243 -42.7892 99.9984 -42.1647L199.635 29.034C200.746 29.8271 201.373 31.1136 201.313 32.4761C201.279 33.2533 201.02 34.0004 200.564 34.6355L129.199 133.992C127.907 135.791 125.387 136.206 123.583 134.917L23.9463 63.7179C22.8363 62.925 22.2088 61.638 22.2686 60.275Z" fill="#DADADA"/>
<path fill-rule="evenodd" clip-rule="evenodd" d="M196.193 31.424C196.245 30.2264 195.699 29.0869 194.733 28.3766L98.5963 -42.281C97 -43.4542 94.7445 -43.1137 93.5681 -41.522L22.7455 54.3436C22.3198 54.9191 22.0784 55.6 22.0472 56.3117C21.9949 57.5093 22.5407 58.6483 23.5071 59.3584L119.643 130.017C120.417 130.585 121.366 130.819 122.316 130.676C123.266 130.533 124.103 130.028 124.672 129.258L195.495 33.3915C195.921 32.8162 196.162 32.1357 196.193 31.424ZM21.7176 56.2967C21.7517 55.5197 22.0148 54.777 22.4795 54.1488L93.3025 -41.7171C94.5867 -43.4552 97.0492 -43.8268 98.7919 -42.546L194.929 28.1117C195.984 28.8876 196.58 30.1315 196.523 31.4388C196.489 32.2158 196.226 32.9585 195.761 33.5873L124.938 129.453C124.316 130.295 123.403 130.845 122.365 131.001C121.329 131.158 120.293 130.902 119.449 130.282L23.3115 59.6238C22.2566 58.8482 21.6605 57.6047 21.7176 56.2967Z" fill="#DADADA"/>
<path fill-rule="evenodd" clip-rule="evenodd" d="M191.404 30.386C191.454 29.2408 190.937 28.1442 190.023 27.4519L97.3864 -42.6653C96.6417 -43.2287 95.7224 -43.4693 94.7966 -43.3429C93.8716 -43.2166 93.0506 -42.7382 92.4861 -41.9958L22.2038 50.3796C21.7716 50.9483 21.5265 51.6233 21.4955 52.3331C21.4455 53.478 21.9613 54.5746 22.8757 55.2669L115.513 125.384C117.049 126.546 119.247 126.246 120.413 124.715L190.696 32.3397C191.128 31.7713 191.373 31.0959 191.404 30.386ZM21.166 52.3182C21.1996 51.5414 21.4679 50.8018 21.9411 50.1804L92.2228 -42.1948C92.8411 -43.0071 93.7392 -43.5305 94.7518 -43.6692C95.7645 -43.8074 96.7708 -43.5439 97.5857 -42.9276L190.222 27.1899C191.223 27.9473 191.788 29.1474 191.733 30.4006C191.699 31.1774 191.432 31.917 190.958 32.5388L120.676 124.914C119.4 126.59 116.995 126.919 115.313 125.646L22.6766 55.5287C21.6758 54.7712 21.111 53.5719 21.166 52.3182Z" fill="#DADADA"/>
<path fill-rule="evenodd" clip-rule="evenodd" d="M186.614 29.3488C186.661 28.2555 186.175 27.2008 185.312 26.5273L96.1754 -43.0495C95.4602 -43.6075 94.5699 -43.8548 93.6686 -43.7451C92.7667 -43.6356 91.9625 -43.1826 91.4029 -42.4694L21.6619 46.4154C21.2221 46.9753 20.9737 47.6453 20.9427 48.3539C20.8948 49.4471 21.3817 50.5017 22.2443 51.1754L111.381 120.752C112.097 121.31 112.986 121.557 113.888 121.448C114.79 121.338 115.594 120.885 116.154 120.172L185.895 31.2875C186.335 30.7277 186.583 30.057 186.614 29.3488ZM20.6129 48.3392C20.6472 47.5617 20.9197 46.8269 21.4019 46.2116L91.1429 -42.6723C91.7568 -43.4546 92.6398 -43.9517 93.6283 -44.0717C94.6173 -44.192 95.5938 -43.921 96.3789 -43.3084L185.515 26.2682C186.462 27.0069 186.996 28.164 186.943 29.3631C186.909 30.1405 186.637 30.8761 186.155 31.4909L116.414 120.375C115.8 121.158 114.917 121.655 113.928 121.774C112.939 121.895 111.962 121.624 111.178 121.012L22.0408 51.4348C21.0944 50.6958 20.5607 49.5386 20.6129 48.3392Z" fill="#DADADA"/>
<path fill-rule="evenodd" clip-rule="evenodd" d="M181.826 28.3111C181.872 27.2696 181.415 26.2574 180.603 25.6029L94.9657 -43.4336C93.5491 -44.5755 91.4654 -44.3556 90.321 -42.9431L21.1207 42.4516C20.6743 43.0023 20.421 43.668 20.39 44.3751C20.3443 45.4169 20.8023 46.4288 21.614 47.0834L107.251 116.12C107.937 116.673 108.798 116.927 109.675 116.834C110.553 116.741 111.341 116.313 111.895 115.629L181.096 30.2354C181.543 29.6838 181.796 29.0181 181.826 28.3111ZM20.0603 44.3609C20.0941 43.5829 20.3723 42.8512 20.8642 42.2443L90.0639 -43.1499C91.3227 -44.7035 93.6145 -44.9455 95.1728 -43.6897L180.81 25.3471C181.703 26.0663 182.206 27.18 182.156 28.3255C182.122 29.1031 181.844 29.8351 181.352 30.4426L112.152 115.836C111.543 116.589 110.675 117.059 109.71 117.161C108.745 117.264 107.798 116.985 107.043 116.376L21.4065 47.3395C20.5133 46.6199 20.0101 45.5062 20.0603 44.3609Z" fill="#DADADA"/>
<path fill-rule="evenodd" clip-rule="evenodd" d="M177.039 27.2732C177.083 26.2688 176.665 25.3225 175.892 24.6779L93.7553 -43.8182C93.0976 -44.3659 92.2664 -44.6261 91.413 -44.5502C90.5596 -44.4744 89.7875 -44.0716 89.2382 -43.4163L20.5792 38.4871C20.1235 39.0306 19.8665 39.6903 19.8358 40.396C19.792 41.401 20.2107 42.3476 20.9831 42.9918L103.12 111.488C104.477 112.62 106.503 112.439 107.637 111.086L176.296 29.1829C176.751 28.6398 177.008 27.9795 177.039 27.2732ZM19.5065 40.3814C19.5401 39.6036 19.8236 38.8752 20.3257 38.2757L88.9846 -43.6274C89.5908 -44.3503 90.4424 -44.7945 91.3836 -44.8778C92.3246 -44.9616 93.2421 -44.6746 93.9668 -44.0703L176.104 24.4252C176.956 25.1363 177.417 26.1793 177.369 27.2882C177.335 28.0672 177.051 28.795 176.549 29.3938L107.89 111.298C106.639 112.79 104.405 112.988 102.908 111.741L20.7713 43.2452C19.9187 42.534 19.4576 41.4904 19.5065 40.3814Z" fill="#DADADA"/>
<path fill-rule="evenodd" clip-rule="evenodd" d="M172.253 26.2361C172.295 25.282 171.905 24.3775 171.182 23.7526L92.5453 -44.202C91.9172 -44.7455 91.1147 -45.0121 90.285 -44.9527C89.4559 -44.8937 88.6999 -44.5163 88.1552 -43.8898L20.0384 34.5229C19.5737 35.0577 19.3122 35.7124 19.2814 36.4176C19.2396 37.3715 19.6303 38.2766 20.3526 38.9012L98.9893 106.856C99.618 107.399 100.421 107.665 101.25 107.607C102.078 107.548 102.835 107.17 103.379 106.544L171.496 28.1307C171.961 27.5966 172.223 26.9412 172.253 26.2361ZM18.9516 36.4034C18.9856 35.6232 19.2755 34.8986 19.7889 34.3078L87.9059 -44.1053C88.508 -44.7984 89.3446 -45.2159 90.2616 -45.2811C91.1789 -45.3465 92.0667 -45.0517 92.7614 -44.451L171.398 23.5038C172.198 24.1949 172.629 25.1959 172.583 26.2505C172.549 27.0303 172.26 27.755 171.746 28.3469L103.628 106.759C103.027 107.452 102.19 107.87 101.273 107.935C100.356 108 99.4682 107.706 98.7739 107.105L20.1365 39.1497C19.3372 38.4589 18.9057 37.4582 18.9516 36.4034Z" fill="#DADADA"/>
<path fill-rule="evenodd" clip-rule="evenodd" d="M167.468 25.1984C167.507 24.2955 167.144 23.4314 166.471 22.8273L91.3337 -44.5874C90.7348 -45.1252 89.9613 -45.3978 89.1563 -45.3553C88.3514 -45.3132 87.6108 -44.9608 87.072 -44.3631L19.4957 30.5592C19.0286 31.0765 18.7548 31.7445 18.7244 32.4388C18.6853 33.3416 19.0487 34.206 19.7215 34.8095L94.8584 102.225C95.4571 102.762 96.2306 103.035 97.0363 102.993C97.8406 102.951 98.5811 102.598 99.1205 102.001L166.696 27.0783C167.164 26.5609 167.438 25.8928 167.468 25.1984ZM18.3948 32.4248C18.4288 31.6541 18.7321 30.9129 19.2506 30.3393L86.8267 -44.5832C87.4245 -45.2459 88.2459 -45.6372 89.1393 -45.6842C90.0324 -45.7312 90.8903 -45.4282 91.5551 -44.8318L166.692 22.5831C167.438 23.2527 167.841 24.2113 167.798 25.2129C167.764 25.9834 167.46 26.7237 166.942 27.2986L99.3657 102.221C98.768 102.883 97.9467 103.275 97.0535 103.322C96.1607 103.369 95.3025 103.066 94.6378 102.469L19.5008 35.0538C18.7541 34.3847 18.3514 33.4259 18.3948 32.4248Z" fill="#DADADA"/>
<path fill-rule="evenodd" clip-rule="evenodd" d="M162.685 24.1613C162.722 23.3085 162.385 22.4853 161.761 21.9023L90.1238 -44.9716C89.5534 -45.5043 88.8088 -45.7836 88.0283 -45.7577C87.2474 -45.7319 86.523 -45.4046 85.9888 -44.8356L18.9541 26.596C18.4773 27.1039 18.198 27.7663 18.1676 28.4609C18.1305 29.3138 18.4671 30.1368 19.0907 30.7197L90.7281 97.5933C91.9053 98.693 93.7605 98.6322 94.8627 97.458L161.898 26.0262C162.375 25.518 162.654 24.8559 162.685 24.1613ZM17.8378 28.4466C17.8718 27.6736 18.1827 26.9364 18.7129 26.3711L85.7481 -45.0604C86.3422 -45.6937 87.1478 -46.0581 88.0168 -46.0866C88.886 -46.1151 89.7143 -45.8047 90.3493 -45.2117L161.986 21.6624C162.681 22.3108 163.055 23.2266 163.014 24.1757C162.98 24.9484 162.67 25.6853 162.139 26.2514L95.1033 97.683C93.8769 98.9898 91.8125 99.0574 90.5026 97.8338L18.8655 30.9598C18.1711 30.3116 17.7966 29.395 17.8378 28.4466Z" fill="#DADADA"/>
<path fill-rule="evenodd" clip-rule="evenodd" d="M157.902 23.1237C157.937 22.321 157.627 21.5383 157.05 20.9772L88.9134 -45.3568C87.7949 -46.4454 85.9969 -46.4237 84.9056 -45.3085L18.4117 22.6325C17.9244 23.1297 17.639 23.7874 17.6089 24.4815C17.5735 25.2852 17.8842 26.0674 18.4607 26.6287L86.5974 92.963C87.7162 94.0511 89.5136 94.0288 90.6046 92.9142L157.099 24.9737C157.586 24.4757 157.871 23.8185 157.902 23.1237ZM17.2794 24.4668C17.313 23.6918 17.6317 22.9582 18.1756 22.4022L84.6698 -45.5388C85.8882 -46.7836 87.895 -46.8076 89.1434 -45.5921L157.28 20.7415C157.924 21.3679 158.271 22.2416 158.231 23.1384C158.198 23.9139 157.879 24.6478 157.335 25.2036L90.8407 93.1442C89.6225 94.3891 87.6157 94.4136 86.3668 93.1979L18.2306 26.8637C17.5869 26.2375 17.2402 25.3638 17.2794 24.4668Z" fill="#DADADA"/>
<path fill-rule="evenodd" clip-rule="evenodd" d="M153.12 22.0862C153.153 21.3318 152.868 20.5905 152.339 20.0518L87.7014 -45.7419C86.6422 -46.8197 84.9019 -46.8376 83.8213 -45.7819L17.8686 18.6681C17.3701 19.1556 17.0783 19.807 17.0476 20.5031C17.0148 21.2573 17.3002 21.9986 17.8295 22.5379L82.4656 88.3319C83.5251 89.4097 85.2652 89.427 86.3462 88.3705L152.299 23.921C152.798 23.4337 153.089 22.7818 153.12 22.0862ZM16.718 20.4885C16.7521 19.7094 17.0793 18.9794 17.6377 18.4332L83.5902 -46.0171C84.8009 -47.1998 86.7505 -47.1796 87.937 -45.9723L152.574 19.8211C153.168 20.4248 153.486 21.2556 153.45 22.1005C153.415 22.8802 153.088 23.6098 152.53 24.1561L86.5774 88.6066C85.3675 89.7891 83.4169 89.7691 82.2307 88.5621L17.5935 22.7688C17.0006 22.1646 16.6811 21.3333 16.718 20.4885Z" fill="#DADADA"/>
<path fill-rule="evenodd" clip-rule="evenodd" d="M148.34 21.0487C148.371 20.3321 148.119 19.6489 147.627 19.1247L86.49 -46.1274C86.0065 -46.6441 85.3491 -46.9423 84.6407 -46.9663C83.9317 -46.9903 83.2558 -46.7375 82.7377 -46.2549L17.3265 14.7047C16.8152 15.1811 16.5171 15.827 16.4866 16.5241C16.4553 17.2405 16.7081 17.9238 17.1989 18.4479L78.3362 83.7002C79.3359 84.7671 81.0189 84.8235 82.0889 83.8273L147.5 22.8678C148.012 22.3917 148.309 21.7455 148.34 21.0487ZM16.157 16.5091C16.1913 15.7252 16.5264 15 17.1005 14.4647L82.5126 -46.4953C83.0952 -47.0383 83.8547 -47.3223 84.6521 -47.2951C85.4488 -47.2682 86.1872 -46.9332 86.7322 -46.3522L147.869 18.9003C148.421 19.4894 148.705 20.2577 148.67 21.0631C148.636 21.8469 148.301 22.5734 147.726 23.1083L82.3141 84.0682C81.1123 85.1882 79.2191 85.1246 78.0951 83.9255L16.9583 18.6725C16.4066 18.0829 16.1215 17.3154 16.157 16.5091Z" fill="#DADADA"/>
<path fill-rule="evenodd" clip-rule="evenodd" d="M143.562 20.0112C143.591 19.3423 143.362 18.6994 142.916 18.199L85.279 -46.5131C84.3383 -47.569 82.7118 -47.6655 81.6531 -46.7279L16.7826 10.7417C16.2585 11.2057 15.9532 11.8459 15.9228 12.5449C15.8937 13.2132 16.1229 13.8573 16.5687 14.3574L74.2057 79.0696C75.1463 80.1259 76.7722 80.2223 77.8318 79.284L142.702 21.8149C143.226 21.3507 143.532 20.7099 143.562 20.0112ZM15.5929 12.5305C15.6275 11.7425 15.9724 11.0194 16.564 10.4955L81.434 -46.9741C82.6286 -48.0321 84.4641 -47.9234 85.5258 -46.7319L143.163 17.9806C143.666 18.5449 143.925 19.2711 143.892 20.0256C143.857 20.8143 143.512 21.5369 142.921 22.061L78.0507 79.5312C76.8557 80.5883 75.0202 80.4801 73.9584 79.2881L16.3218 14.5766C15.8189 14.0116 15.56 13.2852 15.5929 12.5305Z" fill="#DADADA"/>
<path fill-rule="evenodd" clip-rule="evenodd" d="M138.787 18.9741C138.814 18.353 138.607 17.7484 138.206 17.2723L84.0686 -46.8991C83.6419 -47.4053 83.0424 -47.7156 82.3819 -47.7722C81.7207 -47.829 81.077 -47.6261 80.5696 -47.2002L16.2403 6.77889C15.7101 7.22359 15.3889 7.875 15.3585 8.56612C15.3314 9.18742 15.5372 9.79155 15.939 10.2681L70.0761 74.4397C70.9575 75.4843 72.5275 75.6193 73.5752 74.7403L137.904 20.7621C138.435 20.3171 138.756 19.6652 138.787 18.9741ZM15.0286 8.55188C15.0629 7.76839 15.4271 7.03057 16.0275 6.52695L80.3569 -47.4521C80.9324 -47.9343 81.6611 -48.1648 82.4099 -48.1002C83.1588 -48.0357 83.8374 -47.6843 84.3211 -47.111L138.458 17.0606C138.913 17.6002 139.147 18.2848 139.116 18.9882C139.082 19.7714 138.718 20.5097 138.117 21.014L73.7874 74.9924C72.6006 75.9884 70.8221 75.8352 69.8237 74.6516L15.687 10.4795C15.2316 9.94023 14.9979 9.25566 15.0286 8.55188Z" fill="#DADADA"/>
<path fill-rule="evenodd" clip-rule="evenodd" d="M134.012 17.9367C134.037 17.3615 133.853 16.7966 133.494 16.3454L82.8567 -47.2853C82.458 -47.7861 81.8877 -48.1025 81.2506 -48.1757C80.6137 -48.249 79.9866 -48.0703 79.4849 -47.6732L15.6961 2.81533C15.1511 3.24679 14.8212 3.89238 14.7906 4.58728C14.7659 5.16159 14.9496 5.7266 15.3085 6.17842L65.9451 69.8093C66.7682 70.8436 68.2809 71.0175 69.3179 70.1967L133.106 19.709C133.651 19.2774 133.982 18.6311 134.012 17.9367ZM14.4608 4.57244C14.4949 3.78269 14.8708 3.04851 15.4915 2.55726L79.2792 -47.931C79.8504 -48.383 80.5638 -48.586 81.2884 -48.5027C82.013 -48.4193 82.6618 -48.0597 83.1153 -47.4898L133.752 16.141C134.161 16.6541 134.37 17.2972 134.341 17.9512C134.307 18.7409 133.932 19.4757 133.311 19.9664L69.5223 70.4549C68.3446 71.388 66.6231 71.1901 65.687 70.014L15.0498 6.38352C14.6418 5.86929 14.4323 5.22632 14.4608 4.57244Z" fill="#DADADA"/>
<path fill-rule="evenodd" clip-rule="evenodd" d="M129.241 16.9C129.264 16.3703 129.101 15.8443 128.783 15.4182L81.6461 -47.672C80.8817 -48.6948 79.4257 -48.9073 78.3997 -48.1455L15.1538 -1.14759C14.5919 -0.73053 14.2521 -0.0906143 14.2217 0.607491C14.1988 1.137 14.3615 1.66272 14.6792 2.08952L61.8167 65.1802C62.5807 66.2028 64.0368 66.415 65.0621 65.6532L128.309 18.6556C128.871 18.2384 129.21 17.5987 129.241 16.9ZM13.8919 0.593227C13.9266 -0.204815 14.315 -0.935215 14.9564 -1.41235L78.2027 -48.4094C79.3742 -49.2798 81.0377 -49.0371 81.9108 -47.8685L129.048 15.2218C129.411 15.7082 129.597 16.3092 129.57 16.9144C129.536 17.7123 129.148 18.443 128.506 18.92L65.2596 65.917C64.088 66.7873 62.4249 66.5442 61.5518 65.3765L14.4145 2.28605C14.0513 1.79916 13.8655 1.19809 13.8919 0.593227Z" fill="#DADADA"/>
<path fill-rule="evenodd" clip-rule="evenodd" d="M124.471 15.8634C124.492 15.3712 124.354 14.8967 124.072 14.4911L80.4344 -48.0588C79.7286 -49.0707 78.329 -49.3214 77.3141 -48.6179L14.6085 -5.11067C14.0297 -4.70888 13.68 -4.07537 13.6493 -3.37188C13.628 -2.87962 13.7662 -2.40539 14.049 -2.00011L57.6857 60.5506C58.3915 61.563 59.7909 61.8134 60.806 61.1093L123.512 17.6025C124.091 17.201 124.44 16.5666 124.471 15.8634ZM13.3199 -3.38655C13.355 -4.19317 13.7563 -4.92051 14.4207 -5.38121L77.1257 -48.888C78.2898 -49.6952 79.8955 -49.4078 80.7051 -48.2471L124.342 14.303C124.667 14.7682 124.825 15.3124 124.8 15.8774C124.765 16.6845 124.364 17.4117 123.701 17.8727L60.9943 61.3799C59.8306 62.1871 58.2248 61.8995 57.4152 60.7388L13.7783 -1.81156C13.4536 -2.27662 13.2952 -2.82097 13.3199 -3.38655Z" fill="#DADADA"/>
<path fill-rule="evenodd" clip-rule="evenodd" d="M119.704 14.8267C119.724 14.3782 119.605 13.9415 119.359 13.5631L79.2224 -48.4467C78.5746 -49.4468 77.2315 -49.7358 76.228 -49.0902L14.0636 -9.07427C13.4747 -8.6946 13.1045 -8.05075 13.0742 -7.35134C13.0548 -6.90315 13.174 -6.46674 13.4192 -6.08838L53.5559 55.9222C54.2035 56.922 55.5464 57.2107 56.55 56.5648L118.715 16.5487C119.303 16.1696 119.673 15.5259 119.704 14.8267ZM12.7446 -7.36589C12.7798 -8.17208 13.2062 -8.91382 13.8848 -9.35037L76.0491 -49.3668C77.205 -50.111 78.7531 -49.7779 79.4996 -48.6249L119.636 13.3846C119.919 13.8206 120.056 14.3242 120.034 14.8409C119.999 15.6467 119.572 16.3889 118.893 16.8251L56.729 56.8415C55.5731 57.5854 54.025 57.2529 53.2787 56.1002L13.1412 -5.90916C12.8595 -6.34572 12.7219 -6.84904 12.7446 -7.36589Z" fill="#DADADA"/>
<path fill-rule="evenodd" clip-rule="evenodd" d="M114.941 13.7895C114.958 13.3847 114.857 12.9851 114.649 12.6348L78.012 -48.8344C77.4218 -49.8238 76.1347 -50.1506 75.1428 -49.5628L13.5198 -13.0371C12.9106 -12.6762 12.5281 -12.0383 12.4973 -11.3314C12.4795 -10.926 12.5808 -10.5267 12.7895 -10.176L49.4265 51.2931C50.0166 52.2826 51.3034 52.6095 52.295 52.021L113.919 15.4955C114.528 15.1344 114.91 14.4968 114.941 13.7895ZM12.1676 -11.3457C12.2034 -12.1641 12.6455 -12.9022 13.3505 -13.3197L74.9735 -49.8456C76.1225 -50.5263 77.6124 -50.1478 78.2947 -49.0023L114.932 12.4663C115.174 12.8723 115.29 13.3345 115.27 13.8046C115.234 14.6229 114.792 15.3607 114.087 15.7789L52.4636 52.3047C51.3154 52.9849 49.8252 52.6068 49.1427 51.4615L12.5055 -10.0077C12.2639 -10.4133 12.1471 -10.8764 12.1676 -11.3457Z" fill="#DADADA"/>
<path fill-rule="evenodd" clip-rule="evenodd" d="M110.18 12.7542C110.196 12.3905 110.112 12.0279 109.937 11.7062L76.8 -49.2223C76.2678 -50.2007 75.0372 -50.5653 74.0557 -50.0348L12.9738 -17.0001C12.3431 -16.6587 11.9479 -16.0277 11.9166 -15.3115C11.9006 -14.9477 11.9845 -14.5852 12.1597 -14.2633L45.297 46.6653C45.8291 47.6435 47.0598 48.0082 48.0411 47.4776L109.123 14.4423C109.754 14.1012 110.149 13.4705 110.18 12.7542ZM11.587 -15.3256C11.6227 -16.1459 12.0938 -16.898 12.8167 -17.2889L73.8988 -50.3241C75.0397 -50.9409 76.4715 -50.517 77.0903 -49.379L110.227 11.5493C110.431 11.9241 110.528 12.345 110.51 12.7686C110.474 13.5886 110.003 14.341 109.281 14.7321L48.1982 47.7672C47.0573 48.3841 45.6258 47.9602 45.0066 46.8218L11.87 -14.1063C11.6662 -14.4812 11.5683 -14.9026 11.587 -15.3256Z" fill="#DADADA"/>
<mask id="mask2_106_2968" style="mask-type:luminance" maskUnits="userSpaceOnUse" x="11" y="-52" width="95" height="96">
<path fill-rule="evenodd" clip-rule="evenodd" d="M11 -51.0347H105.756V43.4615H11V-51.0347Z" fill="white"/>
</mask>
<g mask="url(#mask2_106_2968)">
<path fill-rule="evenodd" clip-rule="evenodd" d="M105.424 11.7182C105.437 11.3949 105.369 11.0697 105.225 10.777L75.5877 -49.611C75.1136 -50.5782 73.9384 -50.9804 72.9686 -50.5072L12.4273 -20.9625C11.7824 -20.6479 11.3629 -20.0077 11.3316 -19.292C11.3175 -18.9685 11.3857 -18.6429 11.5296 -18.3501L41.1665 42.0379C41.6414 43.0048 42.816 43.4071 43.7859 42.9336L104.327 13.3896C104.972 13.0747 105.392 12.4343 105.424 11.7182ZM11.0019 -19.3063C11.0384 -20.1427 11.5294 -20.8909 12.282 -21.258L72.8233 -50.8029C73.9565 -51.3555 75.33 -50.8859 75.8849 -49.7557L105.522 10.6323C105.69 10.9743 105.77 11.3547 105.754 11.7328C105.717 12.5694 105.226 13.3177 104.473 13.685L43.9314 43.2292C42.7979 43.7827 41.4249 43.313 40.8703 42.1826L11.2328 -18.2057C11.065 -18.5471 10.9853 -18.9281 11.0019 -19.3063Z" fill="#DADADA"/>
</g>
</g>
</g>
</g>
<defs>
<clipPath id="clip0_106_2968">
<rect width="232.75" height="92.3726" fill="white"/>
</clipPath>
</defs>
</svg>
